<svg width="25" height="25" viewBox="0 0 25 25" fill="none" xmlns="http://www.w3.org/2000/svg">
<path d="M8.08088 10.2154L12.7417 5.55473L17.4049 10.2178L20.1169 7.50581L12.7417 0.130371L5.369 7.50341L8.08088 10.2154ZM0.741882 12.13L3.45396 9.41792L6.16586 12.1298L3.45381 14.8419L0.741882 12.13ZM8.08088 14.0453L12.7417 18.706L17.4047 14.0431L20.1182 16.7536L20.1169 16.7551L12.7417 24.1304L5.36876 16.7576L5.36492 16.7537L8.08088 14.0453ZM19.3179 12.1315L22.03 9.41941L24.7419 12.1313L22.0299 14.8434L19.3179 12.1315Z" fill="#F3BA2F"/>
<path d="M15.4924 12.1289H15.4936L12.7416 9.37695L10.7079 11.4107H10.7077L10.4741 11.6445L9.99218 12.1265L9.98834 12.1302L9.99218 12.1342L12.7416 14.8837L15.4936 12.1318L15.4949 12.1302L15.4924 12.1289Z" fill="#F3BA2F"/>
</svg>
