<svg width="25" height="25" viewBox="0 0 25 25" fill="none" xmlns="http://www.w3.org/2000/svg">
<path d="M24.0013 15.6465C22.422 22.075 16.006 25.9874 9.67057 24.3843C3.33774 22.7815 -0.517461 16.2701 1.0626 9.84191C2.64119 3.4126 9.05717 -0.500109 15.3907 1.10263C21.7258 2.70536 25.5806 9.21754 24.0013 15.6465Z" fill="#F7931A"/>
<path d="M17.7454 11.0341C17.9808 9.43732 16.7828 8.57896 15.1447 8.00634L15.6761 5.84336L14.3787 5.51523L13.8614 7.62121C13.5203 7.53496 13.17 7.45359 12.8219 7.37297L13.3429 5.25311L12.0463 4.92499L11.5145 7.08721C11.2322 7.02196 10.9551 6.95747 10.6861 6.8896L10.6875 6.88285L8.89834 6.42947L8.55321 7.83571C8.55321 7.83571 9.51581 8.05958 9.49548 8.07346C10.0209 8.20658 10.1159 8.55945 10.1 8.83919L9.49474 11.3033C9.53095 11.3127 9.57789 11.3262 9.62962 11.3472C9.58639 11.3363 9.5402 11.3243 9.49253 11.3127L8.6441 14.7645C8.57981 14.9265 8.41686 15.1695 8.04956 15.0773C8.06249 15.0964 7.10654 14.8384 7.10654 14.8384L6.46246 16.3455L8.1508 16.7726C8.46489 16.8525 8.7727 16.9361 9.0757 17.0149L8.5388 19.2026L9.8347 19.5307L10.3664 17.3662C10.7204 17.4637 11.0641 17.5537 11.4004 17.6385L10.8705 19.7928L12.1678 20.121L12.7048 17.9374C14.9171 18.3622 16.5807 18.1909 17.2809 16.1603C17.8452 14.5253 17.2528 13.5822 16.0888 12.9672C16.9365 12.7688 17.575 12.2029 17.7454 11.0341ZM14.7811 15.2524C14.3802 16.8874 11.6675 16.0035 10.7881 15.7819L11.5005 12.8835C12.38 13.1063 15.2001 13.5473 14.7811 15.2524ZM15.1824 11.0104C14.8166 12.4977 12.5588 11.742 11.8264 11.5568L12.4723 8.92808C13.2047 9.11333 15.5634 9.45907 15.1824 11.0104Z" fill="white"/>
</svg>
