<svg width="26" height="26" viewBox="0 0 26 26" fill="none" xmlns="http://www.w3.org/2000/svg">
<path d="M22.2438 9.82361H12.038C10.7854 9.82361 9.77002 10.839 9.77002 12.0916V22.2974C9.77002 23.55 10.7854 24.5654 12.038 24.5654H22.2438C23.4964 24.5654 24.5118 23.55 24.5118 22.2974V12.0916C24.5118 10.839 23.4964 9.82361 22.2438 9.82361Z" stroke="white" stroke-width="2" stroke-linecap="round" stroke-linejoin="round"/>
<path d="M5.2341 16.6275H4.10012C3.49862 16.6275 2.92175 16.3886 2.49642 15.9632C2.0711 15.5379 1.83215 14.961 1.83215 14.3595V4.15371C1.83215 3.5522 2.0711 2.97534 2.49642 2.55001C2.92175 2.12469 3.49862 1.88574 4.10012 1.88574H14.3059C14.9075 1.88574 15.4843 2.12469 15.9096 2.55001C16.335 2.97534 16.5739 3.5522 16.5739 4.15371V5.28769" stroke="white" stroke-width="2" stroke-linecap="round" stroke-linejoin="round"/>
</svg>
