<svg width="25" height="25" viewBox="0 0 25 25" fill="none" xmlns="http://www.w3.org/2000/svg">
<g clip-path="url(#clip0)">
<path d="M12.4949 24.8451C19.1223 24.8451 24.4949 19.4725 24.4949 12.8451C24.4949 6.21768 19.1223 0.845093 12.4949 0.845093C5.86746 0.845093 0.494873 6.21768 0.494873 12.8451C0.494873 19.4725 5.86746 24.8451 12.4949 24.8451Z" fill="#988430"/>
<path d="M12.4949 24.4607C18.91 24.4607 24.1105 19.2602 24.1105 12.8451C24.1105 6.42998 18.91 1.22949 12.4949 1.22949C6.07976 1.22949 0.879272 6.42998 0.879272 12.8451C0.879272 19.2602 6.07976 24.4607 12.4949 24.4607Z" fill="#7A6A2A"/>
<path d="M12.4949 24.216C18.7749 24.216 23.8658 19.1251 23.8658 12.8451C23.8658 6.56516 18.7749 1.47424 12.4949 1.47424C6.21494 1.47424 1.12402 6.56516 1.12402 12.8451C1.12402 19.1251 6.21494 24.216 12.4949 24.216Z" fill="#BA9F33"/>
<path fill-rule="evenodd" clip-rule="evenodd" d="M5.74146 11.5635C5.67349 11.5015 5.60168 11.4393 5.53563 11.3772C5.46959 11.3151 5.40175 11.2529 5.33378 11.1908L5.13179 10.9988C5.09877 10.9658 5.06383 10.9367 5.0308 10.9036C4.99778 10.8745 4.95899 10.8415 4.92597 10.8123C4.65794 10.558 4.38837 10.3037 4.12405 10.0492C4.39784 10.2997 4.66587 10.5484 4.93967 10.8026L5.03477 10.8978C5.06779 10.9307 5.10274 10.9599 5.13576 10.9929L5.33762 11.1793C5.40559 11.2414 5.47163 11.3036 5.5396 11.3713C5.60757 11.439 5.67362 11.5013 5.74159 11.5633L5.74146 11.5635ZM2.18421 11.5251C2.18421 11.5251 3.15893 11.626 3.63471 11.694C4.07541 11.7562 5.4541 11.9678 5.4541 11.9678L2.18421 11.5251ZM2.18421 11.5251C2.458 11.5484 2.73179 11.5775 3.00559 11.6067C3.14536 11.6203 3.27938 11.6357 3.41339 11.6493L3.61909 11.6727C3.68706 11.6823 3.75311 11.6921 3.82107 11.7018L4.63669 11.8318L5.04437 11.8998C5.17839 11.9231 5.3124 11.9484 5.45218 11.9717C5.31816 11.9582 5.17839 11.9387 5.04437 11.9193L4.63669 11.861L3.82107 11.7407C3.75311 11.731 3.68706 11.7173 3.61909 11.7077L3.41327 11.684C3.27925 11.6704 3.13947 11.651 3.00546 11.6354C2.73167 11.6025 2.45787 11.5674 2.18408 11.5248L2.18421 11.5251ZM5.35707 12.2217C5.35707 12.2217 4.31631 12.4859 3.96482 12.5869C3.61922 12.682 2.57256 13.0005 2.57256 13.0005L5.35695 12.2218L5.35707 12.2217Z" fill="#CFB66C"/>
<path fill-rule="evenodd" clip-rule="evenodd" d="M5.35696 12.2217C5.12592 12.2896 4.89616 12.3557 4.66179 12.4179L3.96662 12.6043C3.73558 12.6722 3.50582 12.7383 3.27542 12.8063L2.92982 12.9014C2.81526 12.9344 2.69878 12.9634 2.58038 12.9966C2.69482 12.9582 2.81142 12.9189 2.92598 12.8859L3.27158 12.7753C3.50262 12.7033 3.73238 12.6354 3.96278 12.5636C4.19766 12.5053 4.42883 12.4431 4.66371 12.3868C4.88694 12.3305 5.12195 12.2743 5.35696 12.2218V12.2217ZM2.71824 13.6412C2.83267 13.5984 4.15312 12.983 4.45994 12.8393C4.61354 12.7673 5.06 12.6089 5.06 12.6089L2.71824 13.6412Z" fill="#CFB66C"/>
<path fill-rule="evenodd" clip-rule="evenodd" d="M2.71821 13.6413C2.81907 13.6029 2.9143 13.5559 3.01133 13.5112L3.29869 13.3772L3.87545 13.0996C4.06745 13.0083 4.25408 12.9076 4.45209 12.8218C4.55309 12.7792 4.65408 12.7443 4.75494 12.7113L4.90854 12.6627C4.96089 12.6492 5.00953 12.6336 5.06214 12.62C4.87014 12.7113 4.66803 12.789 4.47577 12.8782C4.28377 12.9734 4.08742 13.0511 3.88928 13.1365L3.30291 13.3946C3.10605 13.4744 2.91405 13.5598 2.71808 13.6413H2.71821ZM2.84621 14.1789C2.84621 14.1789 4.04224 13.478 4.45389 13.2527C4.66944 13.1324 5.36653 12.7866 5.36653 12.7866L2.84621 14.1789Z" fill="#CFB66C"/>
<path fill-rule="evenodd" clip-rule="evenodd" d="M2.84631 14.1792C3.04817 14.0549 3.25399 13.9287 3.45982 13.8006L3.76702 13.6141C3.87185 13.552 3.97284 13.4937 4.07972 13.4317C4.18456 13.3694 4.28555 13.3074 4.3923 13.2491C4.44312 13.2177 4.49637 13.1905 4.55153 13.1676L4.71461 13.0861C4.93016 12.9812 5.14571 12.8743 5.37291 12.7831C5.16709 12.9133 4.95537 13.024 4.74379 13.1384C4.63896 13.1966 4.53208 13.2491 4.42725 13.3074C4.32241 13.3656 4.22142 13.4278 4.11454 13.4841C4.00971 13.5462 3.90872 13.6045 3.80196 13.6608L3.48542 13.8336L2.84657 14.1792H2.84631ZM5.35691 12.9403C5.35691 12.9403 4.61323 13.5111 4.37246 13.6937C4.13169 13.8762 3.42295 14.3888 3.42295 14.3888L5.35691 12.9403Z" fill="#CFB66C"/>
<path fill-rule="evenodd" clip-rule="evenodd" d="M9.62499 17.5441L9.24445 16.8237L9.46576 15.9227L11.0444 15.3131L10.3725 13.9345L10.7045 12.5423L11.3279 11.2955L13.2542 10.9927L14.6696 9.64319L17.726 9.87423L18.3259 13.1422L17.1706 17.2568L16.5124 19.3869L13.8444 19.4879L12.6056 18.6297L11.1551 18.0237L9.62499 17.5441Z" fill="#E2CC85"/>
<path fill-rule="evenodd" clip-rule="evenodd" d="M14.3047 17.5208C14.3047 17.5208 13.9357 17.6898 13.3063 17.6509C13.1241 17.4063 11.8485 17.2917 11.8485 17.2917C11.8485 17.2917 11.6893 17.2432 11.4077 17.3597C11.1243 17.4749 10.8562 17.4607 10.6057 17.5227C10.3553 17.5848 10.1065 17.2587 9.91455 17.1907C9.72255 17.1189 9.46796 16.9461 9.46796 16.9461L8.93036 16.8936L7.8508 16.4373L6.13573 14.7286L5.66968 15.4582L5.52594 16.3611L6.04447 17.4311L7.44056 18.7029L10.1629 19.3941L11.7764 18.9187L13.7978 18.0643L14.3047 17.5207V17.5208Z" fill="#F1D789"/>
<path fill-rule="evenodd" clip-rule="evenodd" d="M4.63273 11.482L4.97833 10.4355L5.39011 9.75965L6.71619 9.64893L6.31811 10.8101L5.2095 12.783L5.66966 14.5441L4.85417 14.9518L4.60355 14.5674L4.40169 13.6859L4.38812 12.6956L4.63273 11.482Z" fill="#F4ECB4"/>
<path fill-rule="evenodd" clip-rule="evenodd" d="M6.12007 17.449L5.86573 17.0936C5.86573 17.0936 5.79776 16.9247 5.83668 16.7771C5.87508 16.6276 5.86957 16.6179 5.85025 16.5615C5.83092 16.5052 5.66772 16.311 5.67744 16.144C5.68704 15.975 5.66388 15.9187 5.78804 15.7848C5.91809 15.6548 5.8793 15.4295 5.8793 15.4295L6.04826 15.5343L6.08666 15.4761C6.08666 15.4761 6.14874 15.5246 6.14874 15.6004C6.16231 15.4956 6.10599 15.0101 6.23412 14.8995C6.36225 14.7889 6.58945 15.4179 6.58945 15.4179L6.44967 14.5052L6.09037 13.5694L5.45152 12.715L5.41312 11.7732V11.6917C5.41312 11.6917 5.11987 12.1422 5.03834 12.4981C4.9801 12.7427 5.11987 13.0397 5.09082 13.3912C5.06739 13.7408 5.03834 13.7135 5.12371 13.852C5.20909 13.9905 5.41696 14.2753 5.33543 14.4812C5.26362 14.6579 5.01888 14.5336 5.01888 14.5336C5.01888 14.5336 4.97037 14.6772 4.90432 14.7297C4.88102 14.6444 4.85581 14.59 4.80922 14.5377C4.80525 14.5708 4.79565 14.6154 4.79565 14.6154C4.79565 14.6154 4.7529 14.4814 4.71014 14.3125C4.65203 14.0873 4.58982 13.7902 4.5335 13.631C4.51021 13.7222 4.45197 13.9999 4.45197 13.9999L4.48499 14.4271L4.64422 15.0135L4.79782 15.3975L4.94733 15.8674L5.07725 16.183L5.18208 16.4238L5.27335 16.9656L5.71405 17.4316L5.94906 17.5365L6.11982 17.4491L6.12007 17.449Z" fill="#F3E19D"/>
<path fill-rule="evenodd" clip-rule="evenodd" d="M4.86376 10.6276C4.86376 10.6276 4.54722 11.1652 4.45608 11.7072C4.36494 12.2491 4.28328 12.8218 4.34088 13.5596C4.39912 14.3034 4.50984 14.7596 4.59918 15.0858C4.75278 15.6277 5.15061 16.3811 5.15061 16.3811L5.16418 16.3519C5.09731 16.2251 5.04394 16.0917 5.00494 15.9538C4.95246 15.748 4.93301 15.5034 4.8845 15.3927C4.84174 15.2821 4.76994 15.1868 4.73499 15.0509C4.70197 14.9209 4.69659 14.715 4.59522 14.5617C4.55246 14.4995 4.49998 14.3364 4.48449 14.1733C4.46504 13.9286 4.49422 13.6548 4.47093 13.4297C4.42817 13.0549 4.39912 12.8005 4.4379 12.6043C4.47669 12.4081 4.6788 11.851 4.80309 11.4083C4.88462 11.1248 4.83598 10.8859 4.98549 10.6393C5.13499 10.3947 5.22639 10.1791 5.25928 10.0296C5.29768 9.89368 4.86325 10.6276 4.86325 10.6276H4.86376Z" fill="#F2E8B0"/>
<path fill-rule="evenodd" clip-rule="evenodd" d="M6.36484 10.4121C6.36484 10.4121 6.20177 10.4607 6.12407 10.5461C6.04638 10.6277 6.01335 10.6956 5.90852 10.8335C5.80369 10.9713 5.7978 11.084 5.7123 11.2568C5.62692 11.4257 5.4385 11.6801 5.41521 11.7713C5.39191 11.8626 5.35313 12.2897 5.30461 12.4917C5.26186 12.6937 5.35312 12.9423 5.35312 12.9423L5.46372 12.9189C5.46372 12.9189 5.46372 13.0626 5.57444 13.1598C5.68503 13.2549 5.70449 12.8373 5.70449 12.8373L6.11806 11.4412L6.74129 11.0179L6.80926 10.6762L6.36459 10.4121H6.36484Z" fill="#F5EEC0"/>
<path fill-rule="evenodd" clip-rule="evenodd" d="M6.66765 11.0451C6.66765 11.0451 6.3744 11.0644 6.23079 11.1694C6.17255 11.212 6.14925 11.247 6.08717 11.2994C5.97261 11.3945 5.856 11.482 5.79981 11.6066C5.7376 11.7308 5.66963 11.9192 5.62304 12.2746C5.60359 12.4241 5.60359 12.5619 5.59002 12.6824C5.57056 12.8454 5.54151 12.9755 5.55699 13.0664C5.57645 13.2527 5.76871 13.3499 5.78739 13.5615L6.18547 13.3596L6.56026 11.8818L7.35642 11.3826L6.90586 10.8778L6.66714 11.0442L6.66765 11.0451Z" fill="#E6DB9D"/>
<path fill-rule="evenodd" clip-rule="evenodd" d="M4.56757 20.996C4.56924 20.9814 4.5709 20.9668 4.57256 20.9518C4.63068 20.4526 4.64053 20.0743 4.68316 19.8373C4.74524 19.5015 4.78799 19.3765 4.77826 19.2508C4.76469 19.049 4.7492 18.9014 4.76866 18.746C4.79772 18.5402 4.9997 18.2956 4.99394 18.1266C4.98997 17.9926 4.922 17.9053 4.86376 17.8238C4.80552 17.7422 4.75893 17.6743 4.75893 17.6743C4.75893 17.6743 5.15701 17.4005 5.15317 16.2975C5.1613 16.2998 5.16912 16.303 5.17647 16.3072L5.37256 16.8644L5.50658 17.0275L6.02114 17.9867L6.68328 18.6295L7.66184 19.2877L8.27548 19.9555L8.33756 21.7361L7.53564 22.7768L7.40431 23.0147C6.36094 22.4909 5.40418 21.81 4.56744 20.9959L4.56757 20.996Z" fill="#E5CB7A"/>
<path fill-rule="evenodd" clip-rule="evenodd" d="M7.01727 22.6994C7.01727 22.6994 7.03084 22.4781 7.21337 22.3343C7.24255 22.3828 7.26188 22.4296 7.25612 22.4644C7.28914 22.4063 7.52018 22.0334 8.04255 21.9363C8.56492 21.8411 8.69112 21.4606 8.69112 21.4606L9.79973 20.4529L11.0677 19.2859L12.6094 18.7441L13.33 18.5673C13.33 18.5673 13.3435 18.6198 13.3164 18.7363C13.4503 18.7267 13.7474 18.6587 14.0561 18.5499C14.1804 18.5014 14.297 18.4819 14.3591 18.546C14.4503 18.6314 14.4639 18.8334 14.4697 18.9537C14.6192 18.9207 14.792 18.7771 14.9305 18.7907C15.1519 18.8139 15.348 19.0742 15.5733 19.0742C15.8704 19.0742 16.0043 18.8916 16.2121 18.7479C16.3364 18.6625 16.515 18.5559 16.616 18.4838C16.8567 18.3071 19.4043 17.5284 19.4043 17.5284L20.2975 17.5867L20.4412 18.5459L20.3644 21.0534C20.355 21.0625 20.3455 21.072 20.3359 21.0811L16.2747 23.2022L10.6453 24.0651C9.38428 23.8591 8.16739 23.4405 7.04646 22.8273L7.01766 22.6993L7.01727 22.6994Z" fill="#D8C173"/>
<path fill-rule="evenodd" clip-rule="evenodd" d="M4.90894 21.315C4.98894 21.1477 5.06087 21.0078 5.07354 20.9578C5.08353 21.0586 5.10183 21.2799 5.1387 21.5152C5.0613 21.4494 4.98471 21.3826 4.90894 21.3149V21.315Z" fill="#F1D789"/>
<path fill-rule="evenodd" clip-rule="evenodd" d="M9.02122 23.6748L9.74928 23.4723L9.81136 23.4917C9.81136 23.4917 9.84439 23.5112 9.84439 23.5771C9.93565 23.5248 10.0133 23.5344 10.0697 23.4995C10.0987 23.5616 10.1278 23.7674 10.256 23.7927C10.3899 23.8218 10.5337 23.7344 10.6793 23.6238C10.8229 23.5093 10.9865 23.3655 11.1103 23.3073C11.1557 23.3908 11.1959 23.477 11.2308 23.5655C11.3938 23.4354 11.6773 22.9073 12.0812 22.9169C12.1979 22.641 12.3929 22.4055 12.6421 22.2392C13.0169 21.9849 13.2517 21.9655 13.545 21.9888C13.6615 21.8375 13.805 21.7091 13.9683 21.6101C14.0168 21.6296 14.1508 21.7111 14.3179 21.6334C14.4868 21.5559 14.677 21.2548 14.9275 21.216C15.0625 21.1974 15.1998 21.2263 15.3159 21.2975C15.3159 21.2975 16.0455 20.5732 16.5489 20.3324C16.5294 20.2742 16.4907 20.0548 17.0809 19.5693C17.1139 19.5985 17.0906 19.68 17.1139 19.6845C17.1235 19.6845 17.2675 19.6224 17.4498 19.4825C17.675 19.3137 17.9449 19.1369 18.1079 19.0884C18.4151 18.9971 18.741 19.1835 18.741 19.1835C18.7687 19.1641 18.7996 19.1496 18.8323 19.1407C18.9099 19.1272 18.9662 19.1174 19.0089 19.1023C19.0051 19.2033 19.0614 19.3761 19.0089 19.5256C19.0697 19.5598 19.1341 19.5872 19.2009 19.6072C19.168 19.679 19.0961 19.8615 18.9758 19.9489C19.0766 19.9975 19.0902 20.0538 19.234 20.1025C19.1757 20.1841 19.0804 20.324 19.0379 20.4097C18.9951 20.501 18.8416 20.8796 18.7737 21.0232C18.7019 21.167 18.6048 21.4311 18.5581 21.484C18.5114 21.537 18.3426 21.7617 18.2125 21.8723C18.3277 21.8295 18.799 21.6859 18.9989 21.6315C18.9394 21.7188 18.6377 22.1664 18.3477 22.5969C16.9589 23.4293 15.4088 23.9561 13.8004 24.1423C12.1921 24.3285 10.5625 24.1698 9.02032 23.6767L9.02122 23.6748Z" fill="#E0CD81"/>
<path fill-rule="evenodd" clip-rule="evenodd" d="M6.71567 10.9926C6.71567 10.9926 6.54684 10.9926 6.51382 11.0159C6.48079 11.0392 6.68278 11.0879 6.74486 11.1111C6.80694 11.1344 6.94095 11.2412 6.9759 11.3267C7.00892 11.4082 8.18947 11.8839 8.18947 11.8839L9.02441 11.8411L9.31229 11.4434L8.7647 10.9638L9.1487 9.83179L8.64003 9.91332L7.41673 10.6429L6.8031 10.8779L6.71567 10.9926Z" fill="#DFC57C"/>
<path fill-rule="evenodd" clip-rule="evenodd" d="M8.54931 11.3674C8.56138 11.3869 8.57838 11.403 8.5986 11.4139C8.61882 11.4248 8.64155 11.4301 8.66451 11.4295C8.83731 11.4295 8.99642 11.4722 9.06247 11.5595C9.17319 11.6994 9.48 12.146 9.48 12.146L10.214 12.4101L10.2613 11.5458L9.45939 10.9886L8.54675 11.3245V11.3673H8.5488L8.54931 11.3674Z" fill="#E5CC7C"/>
<path fill-rule="evenodd" clip-rule="evenodd" d="M8.4053 11.6879C8.4053 11.6879 8.53918 11.6976 8.70814 11.6354C8.8771 11.5732 9.15474 11.4393 9.27518 11.4918C9.44402 11.5636 9.40907 11.7889 9.59173 11.991C9.70232 12.1153 9.9043 12.1114 10.0189 12.2455C10.1334 12.3795 10.5275 12.3173 10.5275 12.3173L10.677 13.1237L10.0771 13.8927L9.88088 14.848H9.06962L8.3285 14.5539L7.96344 13.6707L8.14597 12.7776L8.4053 11.6879Z" fill="#D2C281"/>
<path fill-rule="evenodd" clip-rule="evenodd" d="M9.97456 11.7266C9.99468 11.7328 10.0156 11.7361 10.0366 11.7364C10.0133 11.7558 9.9647 11.7984 9.98416 11.9092C10.0036 12.0199 10.0657 12.1596 10.0133 12.245C10.0551 12.2907 10.0863 12.3451 10.1046 12.4042C10.1376 12.4995 10.1474 12.5868 10.3628 12.6005C10.3317 12.6196 10.303 12.6424 10.2774 12.6684C10.2774 12.6684 10.4269 12.7985 10.5027 12.9188C10.5803 12.9155 10.7861 12.8515 10.7861 12.8515L10.8288 12.8807L10.9201 12.8423C10.9201 12.8423 10.8347 12.8092 10.8968 12.6015C10.955 12.419 11.0075 12.4287 11.012 12.4151C11.0165 12.4016 11.0547 12.2093 11.0547 12.1316C11.0838 12.0308 11.1071 11.7239 11.1071 11.7239L11.045 11.0463L10.6956 10.8346L10.4114 10.5603L10.1434 11.0651L9.96688 11.2411L9.95331 11.678L9.97456 11.7266Z" fill="#E2C270"/>
<path fill-rule="evenodd" clip-rule="evenodd" d="M10.8152 11.1596C10.8152 11.1596 10.8773 11.3363 10.9008 11.4722C10.909 11.4458 10.9136 11.4183 10.9143 11.3907C10.9143 11.3907 10.9628 11.6587 10.9724 11.7694C10.9919 11.7655 11.0108 11.7597 11.0152 11.779C11.0195 11.7984 11.0638 12.014 11.0536 12.1344C11.1344 12.001 11.2463 11.8891 11.3797 11.8082C11.4574 11.7596 11.5487 11.7072 11.6439 11.7032C11.7934 11.6994 11.9021 11.7985 12.0808 11.7985C12.5118 11.7985 12.9022 11.4819 13.1895 11.3849C13.4011 11.313 13.5836 11.2606 13.7118 11.144C13.774 11.0917 13.8847 10.9752 13.9856 10.8023C14.1196 10.5719 14.2593 10.3713 14.3992 10.3461C14.3359 10.3577 14.2716 10.3622 14.2072 10.3596C14.2072 10.3596 14.25 10.3169 14.3224 10.2586C14.3949 10.2004 14.4817 10.1286 14.6058 10.1286C14.8273 10.1286 14.9379 10.1615 15.0622 10.1615C15.1864 10.1576 15.2583 10.1286 15.2583 10.1286C15.2583 10.1286 15.3884 10.2199 15.6816 10.2199C15.9748 10.2237 16.1709 10.2489 16.3244 10.2626C16.4778 10.2763 16.9923 10.2199 17.1399 10.2242C17.2361 10.2279 17.3306 10.251 17.4176 10.2922L16.9418 8.90978L15.2328 7.41602L14.2153 8.1364L12.6501 9.70146L11.1356 10.2626L10.8191 10.6179V11.1596H10.8152Z" fill="#CCB360"/>
<path fill-rule="evenodd" clip-rule="evenodd" d="M14.2134 10.3674C14.2134 10.3674 14.2561 10.3248 14.3278 10.2665C14.3995 10.2083 14.4872 10.1364 14.6113 10.1364C14.8327 10.1364 14.9434 10.1694 15.0677 10.1694C15.192 10.1655 15.2638 10.1364 15.2638 10.1364C15.2638 10.1364 15.3941 10.2275 15.6871 10.2275C15.9803 10.2313 16.1764 10.2566 16.3299 10.2701C16.4834 10.2837 16.9978 10.2275 17.1454 10.2317C17.2416 10.2353 17.336 10.2585 17.423 10.2997L17.2075 9.67633L16.9571 9.20068L16.2425 8.41809C16.2425 8.41809 15.3849 7.91326 15.3783 7.90942C15.3745 7.90558 15.0812 7.82788 15.0812 7.82788L14.3045 8.29777L13.5997 10.1211L13.5862 10.5051L14.0424 10.7207C14.1569 10.5287 14.2833 10.3751 14.4017 10.3556C14.2948 10.3673 14.2133 10.3673 14.2133 10.3673L14.2134 10.3674Z" fill="#D5B457"/>
<path fill-rule="evenodd" clip-rule="evenodd" d="M14.2036 10.4976C14.1357 10.5015 14.0795 10.4879 14.0639 10.4394C14.0056 10.2763 13.959 10.253 13.9103 10.253C13.8615 10.253 13.7957 10.3578 13.7567 10.3674C13.7176 10.377 13.6713 10.2471 13.6713 10.2471L13.6285 10.2277C13.6285 10.2277 13.378 10.3907 13.2014 10.583C13.0248 10.7752 12.7354 11.1015 12.6053 11.1596C12.4753 11.2177 12.0285 11.2373 11.8757 11.2703C11.7229 11.3034 11.5534 11.4141 11.5301 11.4393C11.5068 11.4645 11.5982 11.4917 11.6118 11.5169C11.6253 11.5402 11.4621 11.5304 11.4486 11.5553C11.439 11.5747 11.487 11.6853 11.5108 11.7416C11.5524 11.7209 11.5982 11.7097 11.6447 11.7086C11.7942 11.7048 11.903 11.8039 12.0815 11.8039C12.5126 11.8039 12.9029 11.4873 13.1903 11.3902C13.402 11.3183 13.5845 11.2659 13.7126 11.1494C13.7747 11.097 13.8854 10.9804 13.9864 10.8076C14.0602 10.6892 14.1321 10.5785 14.204 10.497L14.2036 10.4976Z" fill="#D2B257"/>
<path fill-rule="evenodd" clip-rule="evenodd" d="M8.02128 20.1074C8.02128 20.1074 7.98288 19.9636 7.62704 19.5928C7.52604 19.488 7.46396 19.4008 7.396 19.3385C7.22704 19.1791 7.12796 19.1365 7.00764 19.0452C6.74358 18.8491 6.45622 18.8491 6.23491 18.6083C6.0136 18.3676 5.75568 17.9075 5.57648 17.4374C5.39984 16.9675 5.3512 16.818 5.3512 16.8044C5.3512 16.7909 5.39984 16.6996 5.46192 16.7132C5.524 16.7267 5.524 16.8471 5.53961 16.8762C5.57054 16.9239 5.60562 16.9687 5.64444 17.0101C5.73571 17.1151 5.86576 17.2405 5.9318 17.4277C5.91824 17.2684 5.86384 17.0918 5.86384 17.0918C5.86384 17.0918 6.2056 17.3073 6.4968 17.5325C6.79004 17.7578 6.91036 17.8355 6.996 17.9791C7.08163 18.1227 7.28336 18.5015 7.38 18.6122C7.47664 18.7229 8.8008 19.1403 8.8008 19.1403L9.43068 19.61L9.74339 20.2954L9.49865 20.6794L9.02876 20.7804L8.26563 20.4386L8.02128 20.1072V20.1074Z" fill="#D2B159"/>
<path fill-rule="evenodd" clip-rule="evenodd" d="M6.32593 17.7461C6.32593 17.7461 6.48516 18.0005 6.87351 18.2412C7.22308 18.4529 7.77642 18.6452 8.26974 18.7597C8.55313 18.8277 8.83665 18.8801 9.09098 18.884C9.77642 18.8936 10.2482 18.6977 10.8328 18.6335C11.1494 18.6005 11.5377 18.5753 11.9415 18.4799C12.4599 18.3557 12.7668 18.2157 13.1843 18.0191C13.4871 17.8794 13.7649 17.7745 13.9901 17.6405C14.3066 17.4542 14.5376 17.2464 14.8057 17.1843C14.7726 17.2756 14.7377 17.4387 14.4736 17.6076C14.6134 17.6037 14.8057 17.5941 14.8057 17.5941C14.8057 17.5941 14.6193 17.7046 14.2911 17.9532C14.0891 18.1068 13.8212 18.3668 13.5474 18.5396C13.3707 18.6503 13.1784 18.7316 13.0522 18.7979C12.745 18.9669 12.6211 19.0522 12.4192 19.2587C12.491 19.2549 12.4969 19.2587 12.4969 19.2587C12.4969 19.2587 12.2425 19.2917 12.0601 19.3887C12.0217 19.3887 11.9551 19.3752 11.8386 19.4082C11.7474 19.4373 11.6269 19.5034 11.5028 19.5382C11.326 19.5907 11.2679 19.5674 11.2679 19.5674L11.2969 19.6257C11.2969 19.6257 11.0665 19.6217 10.9897 19.6295C11.0033 19.6334 10.9995 19.6392 10.9995 19.6392C10.986 19.6415 10.973 19.6461 10.9611 19.6528C10.9241 19.6768 10.8835 19.6944 10.8407 19.7052C10.8174 19.709 10.798 19.709 10.7688 19.7149C10.7785 19.7382 10.8543 19.8685 10.8893 19.9453C10.8602 19.9647 10.4232 20.2949 10.4232 20.2949C10.4368 20.3162 10.4478 20.339 10.4562 20.3628C10.4698 20.4054 10.4757 20.4677 10.4893 20.4967C10.5222 20.555 10.5416 20.5647 10.5416 20.5647C10.5416 20.5647 10.4893 20.5744 10.3979 20.5977C10.3203 20.6172 10.2251 20.6501 10.0907 20.6695C10.0494 20.6749 10.0079 20.6781 9.96638 20.6792C9.98583 20.722 10.0712 20.8851 9.9139 21.0733C9.75658 21.2616 9.70807 21.289 9.65956 21.4093C9.63514 21.3909 9.60914 21.3746 9.58186 21.3607C9.52951 21.3374 9.45758 21.3026 9.43236 21.2559C9.41766 21.3181 9.39819 21.3791 9.37412 21.4384C9.32561 21.5685 9.2538 21.6967 9.24023 21.7937C9.18775 21.7355 9.09073 21.6209 8.95671 21.6442C8.8227 21.6675 8.71594 21.8501 8.69265 21.9025C8.69265 21.8695 8.66935 21.8443 8.66359 21.8831C8.65962 21.9258 8.5859 22.3723 8.17425 22.7335C8.17041 22.6422 8.17041 22.4403 8.16068 22.3743C8.12228 22.4127 8.0753 22.4694 7.79562 22.5899C7.52183 22.7102 7.56522 22.8307 7.56522 22.8307C7.56522 22.8307 7.54193 22.6387 7.68951 22.4364C7.83902 22.2346 7.93028 22.1393 7.93028 22.1238C7.92787 22.1081 7.92113 22.0933 7.91082 22.0811C7.89137 22.0616 7.85258 22.0383 7.85258 22.0229C7.87588 22.0133 8.10692 21.9025 8.09335 21.6733C8.07978 21.4676 7.99249 21.3607 7.93028 21.2851C7.92068 21.2753 8.02167 21.2035 8.00798 21.1802C7.99825 21.1667 7.87409 21.0753 7.85847 21.0266C7.86214 20.9976 7.86866 20.969 7.87793 20.9413C7.8915 20.8985 7.90122 20.8693 7.89738 20.8403C7.88766 20.7917 7.83518 20.6577 7.81969 20.6442C7.83326 20.648 7.93028 20.6442 7.93028 20.6442C7.93028 20.6442 7.85271 20.5199 7.83902 20.4616C7.82532 20.4034 7.79626 20.2499 7.78078 20.2209C7.8138 20.2247 7.89534 20.2305 7.89534 20.2209C7.8993 20.1917 7.82353 20.1432 7.85694 20.1057C7.88023 20.1095 7.9249 20.129 7.96753 20.1834C7.94423 20.1212 7.90545 20.0008 7.82378 19.9523C7.86218 19.9388 7.99274 19.9037 8.1073 19.9717C8.22186 20.0396 8.2609 20.1347 8.2609 20.1347C8.2609 20.1347 8.32887 20.1872 8.43383 20.2649C8.55415 20.36 8.7075 20.4953 8.95223 20.591C9.00471 20.6202 9.1386 20.6202 9.23575 20.6008C9.27805 20.5907 9.31861 20.5743 9.35607 20.5523C9.3696 20.5443 9.38393 20.5378 9.39882 20.5328C9.37795 20.4909 9.35395 20.4506 9.32702 20.4124C9.36004 20.4124 9.39882 20.4163 9.39882 20.4163C9.39882 20.4163 9.42212 20.3638 9.31729 20.2627C9.34058 20.2394 9.36977 20.2243 9.36977 20.185C9.33674 20.1812 9.2785 20.1327 9.26494 20.1132C9.28426 20.0997 9.31345 20.055 9.34647 20.0414C9.31729 20.0181 9.24548 19.921 9.21246 19.9114C9.244 19.8997 9.27453 19.8854 9.30372 19.8686C9.30372 19.8686 9.14065 19.8259 9.08817 19.7909C9.03569 19.7525 8.95812 19.6861 8.91153 19.6666C8.86289 19.6472 8.77751 19.6376 8.74257 19.5987C8.77546 19.6084 8.82794 19.5987 8.86686 19.5987C8.89591 19.5987 8.90961 19.6025 8.91921 19.6025C8.91537 19.5889 8.91537 19.5597 8.99114 19.5501C9.02759 19.5447 9.06296 19.5335 9.09598 19.5171C9.09598 19.5171 9.02404 19.5133 8.94238 19.4356C8.86071 19.3579 8.79287 19.2958 8.74628 19.2861C8.69777 19.2764 8.6065 19.3191 8.55018 19.3151C8.47249 19.3055 8.43946 19.2666 8.43946 19.2666C8.43946 19.2666 8.18129 19.2899 7.60849 18.9405C7.11326 18.6375 6.8977 18.3696 6.8977 18.3696C6.85136 18.3528 6.80656 18.332 6.76382 18.3074C6.57745 18.2104 6.31914 18.0084 6.32695 17.7442L6.32593 17.7461Z" fill="#C2A44D"/>
<path fill-rule="evenodd" clip-rule="evenodd" d="M13.4696 6.09169C13.5145 6.10628 13.5544 6.1332 13.5848 6.16938C13.676 6.27422 13.7343 6.47223 13.5265 6.68394C13.608 6.713 13.6417 6.72234 13.7129 6.713C13.6411 6.7985 13.478 6.98103 13.4683 7.14026C13.4585 7.27031 13.5401 7.30922 13.5401 7.30922C13.5401 7.30922 13.4158 7.45284 13.41 7.69322C13.4687 7.62703 13.533 7.56597 13.602 7.5107C13.7458 7.39614 13.9438 7.26609 14.0778 7.18455C14.076 7.21873 14.0806 7.25294 14.0914 7.28542C14.0914 7.28542 14.3417 7.07959 14.5522 7.17098C14.6473 7.21374 14.6045 7.34762 14.6045 7.34762C14.6045 7.34762 14.7347 7.29911 14.826 7.39038C14.9172 7.48164 15.0463 7.71703 15.1124 7.8083C15.1415 7.85105 15.2173 7.93258 15.2948 8.05879C15.4008 8.23549 15.4893 8.4221 15.559 8.61598C15.5629 8.51498 15.5881 8.3578 15.8756 8.45674C16.1629 8.55774 16.4891 8.76945 16.7629 9.18634C17.0367 9.60324 17.1045 10.0739 17.2424 10.2531C17.3821 10.4259 17.5259 10.7133 17.5356 10.8337C17.5454 10.9542 17.4929 11.3424 17.7802 12.3929C17.8618 12.0667 17.9861 11.3424 17.9861 11.3424L18.054 10.7035L18.1317 8.72682L16.0676 7.01201L14.454 5.84106L13.4035 5.94206L13.4694 6.09156L13.4696 6.09169Z" fill="#CAA13E"/>
<path fill-rule="evenodd" clip-rule="evenodd" d="M17.3046 9.03339C17.3046 9.03339 17.2754 8.84139 16.79 8.51499C16.3045 8.19268 15.9259 8.19268 15.5765 7.91889C15.3084 7.70334 15.0289 7.20811 14.8469 7.04504C14.6701 6.88388 14.6411 6.41784 14.6411 6.41784L15.2371 5.91864L16.1237 4.63723L16.8731 3.81201L17.2323 4.31121L17.7315 4.89758L18.0091 6.07428L18.1101 7.79665L17.3037 9.03351L17.3046 9.03339Z" fill="#B59544"/>
<path fill-rule="evenodd" clip-rule="evenodd" d="M17.9047 11.0979C17.9194 10.8367 17.8871 10.575 17.8094 10.3252C17.6814 9.92711 17.4017 9.22029 17.2718 8.95559C17.2193 8.66234 17.2583 8.63904 17.3146 8.60602C17.3709 8.573 17.5826 8.45242 17.6986 8.02938C17.8146 7.60634 18.1744 7.59252 18.1744 7.59252L18.3957 7.42944L18.7317 8.27015L19.0248 9.02944L19.1161 9.61005L19.184 10.1052L19.0248 11.1518L18.2385 11.8625L17.9045 11.0979H17.9047Z" fill="#C89D3A"/>
<path fill-rule="evenodd" clip-rule="evenodd" d="M6.93188 22.7637V22.7422C6.94822 22.732 6.96265 22.719 6.97451 22.7038C6.98808 22.6844 6.99793 22.6611 7.00753 22.6553C7.02699 22.6456 7.11825 22.6169 7.16676 22.6261C7.21528 22.6353 7.34353 22.6882 7.4115 22.6844C7.55128 22.6805 7.71435 22.5736 7.97265 22.6223C8.36101 22.6941 8.45227 22.9582 8.67755 23.1077C8.83115 23.2126 8.99013 23.1659 9.01342 23.1659H9.06577C9.0755 23.1659 9.14731 23.0844 9.18622 23.0883C9.26392 23.0922 9.2716 23.1563 9.32011 23.1601C9.43467 23.1737 9.65611 23.1019 9.76683 23.1311C9.79966 23.1414 9.82952 23.1594 9.85386 23.1838C9.87819 23.2081 9.89629 23.2379 9.90661 23.2707C9.9299 23.3425 9.91045 23.4338 9.85413 23.4863C9.73381 23.5969 9.61925 23.7018 9.59595 23.7935C9.62558 23.8161 9.65403 23.8402 9.6812 23.8657C8.72045 23.6209 7.79608 23.2508 6.93188 22.7649V22.7637Z" fill="#CEB052"/>
<path fill-rule="evenodd" clip-rule="evenodd" d="M17.2716 18.884C17.2716 18.884 17.5745 18.4801 17.6794 18.2801C17.7843 18.0738 17.3474 15.4626 17.3474 15.4626L18.2251 12.587L18.2017 11.6511C18.2017 11.6511 18.2444 10.7869 18.3454 10.4121C18.4659 10.6277 18.8406 10.8879 18.9222 11.0258C18.9606 10.7616 19.091 10.2044 19.0717 9.61023C19.1435 9.72082 19.3163 10.8335 19.3163 10.8335L19.4891 11.583L19.7144 12.3791L19.9649 13.22L20.1144 13.8006L20.1998 13.9403L20.2717 14.1849L20.3397 14.4491L20.5358 15.0685L20.651 15.5772L20.7422 16.4996C20.7621 16.5702 20.7764 16.6423 20.785 16.7151C20.7888 16.8161 20.7714 16.8744 20.7714 16.8919C20.7714 16.9094 20.8044 17.1132 20.7909 17.2667C20.7714 17.4203 20.7714 17.5405 20.651 17.6507C20.5305 17.7609 20.4549 18.4196 20.4549 18.4196L20.2393 18.276C20.2393 18.276 20.2821 18.0797 20.1811 17.9012C20.0801 17.7226 19.884 17.6856 19.7733 17.7148C19.6627 17.7381 19.4414 17.7729 19.3694 17.8351C19.3015 17.8972 19.1345 18.0895 18.9811 18.1769C18.7891 18.2921 18.4762 18.3012 18.3093 18.34C18.1404 18.3784 17.954 18.4936 17.7578 18.6273C17.6039 18.7269 17.4415 18.8126 17.2724 18.8833L17.2716 18.884Z" fill="#CCA847"/>
<path fill-rule="evenodd" clip-rule="evenodd" d="M17.2716 23.1267C17.2716 23.1267 17.2844 23.135 17.3091 23.1486C18.6886 22.5022 19.9247 21.5861 20.9443 20.4541C20.9332 20.0612 20.9187 19.6584 20.9028 19.5091C20.8699 19.1926 20.8932 18.8703 20.8835 18.6839C20.8738 18.4975 20.7689 17.7382 20.7204 17.5421C20.668 17.3461 20.5668 17.2489 20.5515 17.2489C20.5379 17.2529 20.4562 17.6179 20.4562 17.7097C20.4562 17.8015 20.4368 18.0224 20.4368 18.0787C20.4232 18.0748 20.4175 18.0403 20.4175 18.0262C20.398 18.0748 20.3747 18.1603 20.365 18.17C20.3553 18.1797 20.3785 18.0885 20.365 18.069C20.3514 18.0495 20.3266 18.0593 20.332 18.0108C20.3343 17.982 20.3388 17.9534 20.3455 17.9254C20.3455 17.9254 20.2873 18.0108 20.2447 18.2282C20.2019 18.4438 20.2019 18.4497 20.1864 18.469C20.1729 18.4924 20.0952 18.57 20.0912 18.5992C20.0873 18.6515 20.1631 18.704 20.1689 18.7331C20.1727 18.7817 20.1009 19.0069 20.0776 19.1171C20.0543 19.2273 20.0641 19.4432 20.0392 19.5539C20.0198 19.6549 20.0008 19.7132 19.9344 19.7558C19.9829 19.7655 20.0295 19.7791 20.0295 19.7791C20.0295 19.7791 20.0975 20.0664 19.9247 20.3112C19.8626 20.3966 19.8471 20.4355 19.781 20.5132C19.6509 20.6568 19.5499 20.8204 19.5401 20.9267C19.5334 20.8953 19.5289 20.8635 19.5266 20.8315C19.5266 20.8315 19.3247 21.0665 19.2392 21.2005C19.1286 21.3733 18.9752 21.3636 18.932 21.4063C18.8889 21.4491 18.8795 21.5267 18.8936 21.5889C18.8552 21.5985 18.783 21.6122 18.7344 21.7617C18.7111 21.8392 18.6529 21.9153 18.5616 21.9675C18.4703 22.0197 18.3596 22.0355 18.3033 22.049C18.3518 22.0626 18.3713 22.0626 18.3946 22.0781C18.3655 22.1266 18.2315 22.2024 18.082 22.2995C17.9325 22.3908 17.8605 22.5247 17.8237 22.6121C17.7853 22.6936 17.7286 22.7461 17.6373 22.7558C17.6757 22.7791 17.7325 22.8334 17.7616 22.851C17.7188 22.8607 17.6464 22.8607 17.517 22.9714C17.381 23.084 17.3345 23.1171 17.2722 23.1268L17.2716 23.1267Z" fill="#C39D3C"/>
<path fill-rule="evenodd" clip-rule="evenodd" d="M14.5697 24.0265C14.6441 23.9744 14.7246 23.9317 14.8095 23.8994C15.1123 23.7791 15.4327 23.7558 15.5589 23.717C15.6794 23.6786 15.7745 23.6256 15.924 23.5966C15.92 23.6306 15.9167 23.6626 15.9131 23.6928C15.4723 23.8314 15.0235 23.9428 14.5691 24.0265H14.5697Z" fill="#D2BA6B"/>
<path fill-rule="evenodd" clip-rule="evenodd" d="M20.1557 16.0606C20.1557 16.0606 20.0936 16.3965 19.9829 16.6082C19.8721 16.8199 19.7525 17.113 19.7525 17.113C19.7532 17.047 19.761 16.9812 19.7758 16.9168C19.636 16.9984 19.2961 17.1946 19.1998 17.2819C19.1085 17.3634 18.955 17.5072 18.9162 17.5751C19.0075 17.3072 19.1026 17.0665 19.1182 16.9557C18.9784 17.0567 18.3259 17.5946 17.9862 17.9499L16.9279 18.8062C16.8058 18.8721 16.68 18.931 16.5512 18.9826C16.3688 19.0602 16.1532 19.1262 15.994 19.1884C16.0367 19.0739 16.1046 18.9728 16.1998 18.8757C16.3008 18.7806 16.6037 18.4524 16.6503 18.2997C16.693 18.1405 16.7027 18.0454 16.6464 17.9114C16.5939 17.925 16.4736 17.9308 16.3921 17.9541C16.3105 17.9774 16.2231 18.0647 16.2231 18.0647C16.2231 18.0647 16.2852 17.7094 16.4192 17.3735C16.3182 17.3774 16.1454 17.4064 16.1454 17.4064C16.1454 17.4064 16.3862 17.0026 16.7982 16.7211C16.672 16.748 16.5486 16.7863 16.4293 16.8355C16.1886 16.9365 15.9245 17.086 15.7284 17.1676C15.839 17.014 16.6157 15.9055 17.0779 14.8724C17.5387 13.8414 17.7109 13.5773 17.8119 13.024C17.8642 12.7502 17.8503 12.3456 17.8642 11.9832C17.8778 11.6239 17.9224 11.3016 17.8934 11.0861C18.0137 11.2356 18.4643 11.6569 18.4798 12.5988C18.4933 13.5405 18.0488 14.8124 17.5768 15.4977C17.692 15.5307 17.9905 15.5696 18.2972 15.0369C18.6039 14.5042 18.6002 14.3554 18.7109 14.134C18.7245 14.2447 18.7205 14.2835 18.7205 14.2835C18.7205 14.2835 19.1672 13.7418 19.3788 13.0602C19.4216 13.3534 19.5478 13.6117 19.3496 14.1496C19.173 14.635 18.942 14.7535 18.942 14.7535C18.942 14.7535 19.0565 14.734 19.2254 14.6331C19.2545 14.7049 19.2488 14.7867 19.2973 14.8156C19.3458 14.8445 19.4119 14.8933 19.4216 14.9399C19.4739 14.8622 19.5555 14.7631 19.5808 14.6894C19.5614 14.843 19.5478 15.5146 19.6192 15.8563C19.7688 15.8428 19.9222 15.8331 20.027 15.5631C19.9552 15.8273 19.9552 15.9864 20.0037 16.2117C20.0833 16.1574 20.1551 16.0603 20.1551 16.0603L20.1557 16.0606Z" fill="#C0993A"/>
<path fill-rule="evenodd" clip-rule="evenodd" d="M15.1104 5.35777C15.1104 5.35777 14.9609 5.41985 14.7066 5.41985C14.4853 5.41985 14.5473 5.33447 14.2017 5.33447C13.6698 5.33447 11.8115 5.64167 11.4852 5.63732C11.2735 5.63348 12.1997 5.72858 12.1997 5.72858L14.5668 5.76161L15.0424 5.72321L15.2192 5.36353L15.1104 5.35777Z" fill="#A88F33"/>
<path fill-rule="evenodd" clip-rule="evenodd" d="M8.97257 9.98489C8.97257 9.98489 8.6696 10.2159 8.54147 10.3927C8.41334 10.5695 8.34537 10.6858 8.19971 10.8296C8.2339 10.8309 8.26806 10.8263 8.3007 10.816C8.3007 10.816 8.3007 10.8544 8.2774 10.8645C8.29753 10.8623 8.31791 10.8645 8.33705 10.8712C8.35618 10.8778 8.37359 10.8887 8.388 10.9029C8.34524 10.9262 8.22876 11.0428 8.32003 11.1807C8.388 11.2855 8.53174 11.2951 8.53174 11.2951C8.53174 11.2951 8.49872 11.3903 8.63657 11.3806C8.93366 11.367 9.26569 11.2369 9.41904 11.2699C9.57264 11.3083 9.65993 11.3224 9.7686 11.5108C9.8838 11.6971 9.98415 11.7263 9.98415 11.7263C9.98415 11.7263 10.0521 11.5534 10.0366 11.2952C10.0924 11.1561 10.1233 11.0082 10.1279 10.8584L10.0269 10.1147L9.5862 9.55737L9.01532 9.87392L8.97257 9.98451V9.98489Z" fill="#E3C571"/>
<path fill-rule="evenodd" clip-rule="evenodd" d="M9.51428 9.87426C9.51428 9.87426 9.55703 9.97525 9.73572 9.98485C9.71627 10.0276 9.71627 10.0335 9.72215 10.0664C9.72599 10.0994 9.73175 10.1479 9.73175 10.1479C9.75143 10.1384 9.76921 10.1254 9.78423 10.1095C9.79396 10.1523 9.77451 10.2201 9.78423 10.2688C9.79024 10.2983 9.8 10.327 9.81329 10.3541C9.81612 10.3475 9.81937 10.341 9.82302 10.3348C9.82686 10.3251 9.86142 10.4396 9.95703 10.5268C9.95695 10.5134 9.96025 10.5002 9.96663 10.4884C9.9681 10.5128 9.97615 10.5362 9.98993 10.5564C9.98277 10.553 9.97624 10.5484 9.9706 10.5428C9.9706 10.5428 9.9802 10.85 10.0327 11.0089C10.0415 10.9986 10.0493 10.9875 10.056 10.9758C10.056 10.9662 10.0521 11.0613 10.0424 11.1294C10.0288 11.1974 10.0386 11.2925 10.0386 11.2925C10.0736 11.2649 10.1121 11.2421 10.153 11.2245C10.2112 11.2011 10.3066 11.1293 10.3647 10.9701C10.3984 10.8799 10.4244 10.787 10.4424 10.6924C10.4612 10.7286 10.4741 10.7675 10.4808 10.8076C10.4848 10.8561 10.576 10.8309 10.576 10.8309L10.5955 10.6192L10.7107 10.1396L10.8155 9.84251L11.3204 9.05621L12.2325 8.35375L13.0287 8.53627L13.7004 7.62363L12.5431 6.92847L11.448 7.04303L10.4541 8.41967L9.65803 9.66831L9.51428 9.87413V9.87426Z" fill="#D8B65B"/>
<path fill-rule="evenodd" clip-rule="evenodd" d="M15.2502 7.88199C15.2502 7.88199 15.1822 7.89556 14.9861 7.99719C14.79 8.09882 14.6541 8.13108 14.5783 8.28058C14.5025 8.43009 14.4968 8.54861 14.4968 8.54861C14.4968 8.54861 14.6308 8.49037 14.7085 8.47092C14.79 8.45159 14.8813 8.45735 14.8715 8.49037C14.8622 8.51302 14.8492 8.53399 14.8331 8.55245C14.8331 8.55245 14.9867 8.54861 14.9826 8.62439C14.9786 8.70017 14.9536 8.78362 14.9245 8.82049C14.8954 8.85889 14.775 8.91572 14.7615 8.96039C14.7284 9.05166 14.775 9.0555 14.7575 9.12922C14.7439 9.20116 14.6799 9.34094 14.4701 9.58554C14.2546 9.83028 14.1629 10.0031 14.1629 10.0031C14.1629 10.0031 14.0581 9.80699 14.0037 9.63803C13.9653 9.65735 13.7591 9.77191 13.7591 9.77191L13.2814 8.10791L13.291 7.99719C13.291 7.99719 13.3338 7.94484 13.3435 7.84768C13.2717 7.82439 13.262 7.80493 13.1667 7.71379C13.0715 7.62266 12.9939 7.51181 12.8348 7.43603C12.8115 7.39328 12.7823 7.33517 12.6659 7.31174C12.5494 7.28832 12.4795 7.26912 12.4795 7.26912C12.4795 7.26912 12.5416 7.2457 12.5708 7.19718C12.4988 7.20691 12.4407 7.23021 12.2834 7.22637C12.1242 7.2224 12.1066 7.21664 12.0193 7.23021C11.932 7.24378 11.8273 7.28269 11.7883 7.14867C11.7455 7.11565 11.6543 7.14483 11.5766 7.25926C11.4989 7.3737 11.4717 7.46509 11.3222 7.50976C11.3117 7.57566 11.2887 7.63893 11.2543 7.69613C11.2115 7.76807 11.1436 7.83987 11.0523 7.94663C10.9085 8.11559 10.9318 8.39322 10.7027 8.60493C10.4717 8.81652 10.7411 8.01844 10.7411 8.01844L11.11 7.13523L12.1605 6.10803L13.7916 5.99744L13.9508 6.84224L14.747 7.11603L15.2499 7.88301L15.2502 7.88199Z" fill="#D3AE4D"/>
<path fill-rule="evenodd" clip-rule="evenodd" d="M15.5085 8.06832L14.8231 7.08003L14.3435 6.71101C14.3435 6.71101 14.0017 6.08202 13.9784 6.06257C13.959 6.049 13.6367 6.01406 13.4308 6.00049L13.4692 6.09559C13.5142 6.11018 13.5541 6.13711 13.5844 6.17329C13.6757 6.27812 13.7339 6.47613 13.5262 6.68784C13.6077 6.7169 13.6414 6.72624 13.7126 6.7169C13.6408 6.8024 13.4777 6.98493 13.468 7.14416C13.4582 7.27421 13.5398 7.31299 13.5398 7.31299C13.5398 7.31299 13.4155 7.45674 13.4097 7.69699C13.4684 7.6308 13.5327 7.56974 13.6017 7.51446C13.7455 7.39927 13.9435 7.26973 14.0775 7.18819C14.0757 7.22241 14.0803 7.25667 14.0911 7.28919C14.0911 7.28919 14.3414 7.08336 14.5519 7.17463C14.647 7.21738 14.6042 7.35139 14.6042 7.35139C14.6042 7.35139 14.7344 7.30288 14.8256 7.39415C14.9169 7.48541 15.047 7.72029 15.113 7.81168C15.1421 7.85443 15.2178 7.93597 15.2954 8.06205C15.4014 8.23877 15.4899 8.42543 15.5596 8.61936C15.5634 8.54166 15.5791 8.43299 15.7132 8.43299L15.5093 8.06793L15.5085 8.06832Z" fill="#CAA13E"/>
<path fill-rule="evenodd" clip-rule="evenodd" d="M5.2328 10.8762C5.2328 10.8762 5.18429 10.7557 5.2328 10.5208C5.28132 10.2859 5.35709 10.1752 5.38231 9.82963C5.40752 9.48403 5.63281 9.05292 5.63281 9.05292L6.25604 8.76953L6.69688 8.88985L6.82692 9.48019L6.26961 9.78739C6.26961 9.78739 6.24055 9.91743 6.08324 10.0223C5.92593 10.1271 5.70845 10.2086 5.6561 10.3155C5.6248 10.381 5.60197 10.4501 5.58813 10.5213C5.58813 10.5213 5.4289 10.4883 5.3338 10.5931C5.2328 10.7 5.23664 10.7951 5.2328 10.8767V10.8762Z" fill="#F4EFC8"/>
<path fill-rule="evenodd" clip-rule="evenodd" d="M6.49105 10.7188C6.49105 10.7188 6.43857 10.7518 6.39979 10.834C6.36139 10.7719 6.26961 10.4029 6.26577 10.0709C6.26193 9.73886 6.24209 9.65655 6.31889 9.54212C6.39569 9.42769 6.69688 9.30712 6.65412 9.10104C6.61137 8.90494 6.43268 8.8234 6.21329 8.87972C6.05969 8.91812 5.94539 9.24478 5.78616 9.40785C5.66571 9.53214 5.52209 9.51268 5.48331 9.58065C5.43083 9.67191 5.47934 9.76318 5.46385 9.82142C5.45988 9.84087 5.41137 9.9457 5.32395 10.0719C5.14731 10.3262 4.8483 10.6855 4.80939 11.0078C4.82296 10.8253 4.81336 10.8215 4.86187 10.6195L4.83268 10.571L5.02468 9.94186L5.14897 9.42347L5.42673 8.55537L5.91595 7.66808L6.39172 7.13599L6.88683 7.16901L6.94507 7.91269L7.22859 9.30891L7.82468 10.0429L6.86929 10.6858L6.49067 10.7188H6.49105Z" fill="#EBCC73"/>
<path fill-rule="evenodd" clip-rule="evenodd" d="M6.78813 10.9828C6.78813 10.9828 6.7066 11.0022 6.67741 10.9868C6.64823 10.9713 6.6193 10.9537 6.6289 10.9343C6.6385 10.9148 6.69098 10.8819 6.69098 10.8663C6.69206 10.8522 6.68759 10.8382 6.67854 10.8273C6.66948 10.8165 6.65654 10.8096 6.64247 10.8081C6.5978 10.8023 6.58423 10.8314 6.58423 10.8314C6.58423 10.8314 6.54148 10.7985 6.50666 10.793C6.52726 10.7904 6.54799 10.7891 6.56874 10.789C6.51508 10.7647 6.45816 10.7483 6.39978 10.7405C6.44829 10.7114 6.54352 10.6259 6.6056 10.6259C6.66768 10.6259 6.7066 10.6163 6.69687 10.5833C6.68714 10.5503 6.63863 10.5018 6.58628 10.4823C6.6056 10.459 6.6193 10.4241 6.57271 10.3287C6.52407 10.2336 6.54352 10.1695 6.55914 10.1463C6.57271 10.1171 6.62122 10.0648 6.64452 10.0317C6.66781 9.99872 6.68727 9.95404 6.72605 9.93075C6.74551 9.91718 6.80759 9.89235 6.8698 9.86867C6.93776 9.84537 6.99408 9.81619 7.03287 9.84537C7.07562 9.87443 7.05616 9.91334 7.05616 9.91334C7.05616 9.91334 7.19018 9.8647 7.3105 9.92691C7.43095 9.98502 7.7242 10.022 7.7242 10.022L7.82928 10.2337L7.13412 10.8298L6.84676 10.9736L6.78852 10.9832L6.78813 10.9828Z" fill="#E5C66B"/>
<path fill-rule="evenodd" clip-rule="evenodd" d="M7.75312 10.0083C7.75312 10.0083 7.53756 10.1521 7.48905 10.2044C7.51811 10.2084 7.56662 10.2278 7.54716 10.2569C7.52387 10.286 7.38409 10.3869 7.3064 10.4822C7.22486 10.5773 7.14716 10.6977 7.12003 10.756C7.09097 10.8083 6.86953 10.9618 6.79388 10.9811C6.95312 10.9811 7.2735 10.785 7.39382 10.785C7.38998 10.8433 7.42684 10.9093 7.49481 10.9151C7.56278 10.9208 7.75888 10.9578 8.02294 10.7948C8.287 10.6355 8.19971 10.517 8.3103 10.4394C8.52201 10.2995 8.60739 10.1752 8.72387 10.0977C8.84035 10.0201 8.90064 10.0024 8.90064 10.0024C8.90064 10.0024 8.90448 9.9442 8.93904 9.95009C8.9485 9.95117 8.95748 9.95482 8.96501 9.96064C8.97255 9.96646 8.97835 9.97423 8.98179 9.98311C8.98179 9.98311 9.18377 9.83937 9.44259 9.80058C9.43655 9.79788 9.43172 9.79305 9.42902 9.78701C9.42902 9.78701 9.44835 9.77728 9.45232 9.76756C9.45232 9.76756 9.46588 9.7481 9.47561 9.75783C9.48534 9.76756 9.49891 9.83937 9.51837 9.86855C9.56112 9.84909 9.64265 9.66656 9.64265 9.66656L9.83888 9.10541V8.59277L9.68528 8.62196L8.53328 9.11117L7.83414 9.83552L7.7526 10.0083H7.75312Z" fill="#E6BD62"/>
<path fill-rule="evenodd" clip-rule="evenodd" d="M11.0696 7.49371C11.1319 7.47859 11.1916 7.45435 11.2469 7.42177C11.2236 7.48398 11.2236 7.55195 11.1226 7.69953C11.0216 7.84712 11.0177 7.86849 10.9362 8.02184C10.8547 8.18107 10.8449 8.41019 10.7673 8.51106C10.8021 8.49413 10.8394 8.48302 10.8778 8.47816C10.8778 8.47816 10.8003 8.54613 10.7673 8.61794C10.7342 8.68974 10.676 8.83925 10.5324 8.93064C10.3888 9.02203 10.2061 9.08015 10.01 9.2957C9.81378 9.50728 9.61192 9.77532 9.5108 9.8717C9.56328 9.78044 9.63509 9.59791 9.65455 9.47759C9.674 9.35727 9.65058 9.21339 9.6836 9.05429C9.71663 8.89518 9.71663 8.7805 9.8756 8.50273C10.0346 8.22497 10.3067 7.25998 10.3067 7.25998L10.8931 7.07361L11.0698 7.49307L11.0696 7.49371Z" fill="#B6933F"/>
<path fill-rule="evenodd" clip-rule="evenodd" d="M10.6463 7.1383C10.6463 7.1383 10.4696 7.39263 10.4211 7.61791C10.3726 7.84319 10.4172 7.82374 10.3881 7.93446C10.3707 8.00197 10.3707 8.07278 10.3881 8.14028C10.4493 8.04173 10.533 7.95915 10.6324 7.89939C10.7995 7.79852 10.9354 7.72659 11.0164 7.64121C11.098 7.54995 11.1659 7.40044 11.3426 7.28588C11.2708 7.27615 11.1698 7.24313 11.1506 7.24748C11.2225 7.16595 11.4379 7.04166 11.6554 6.89215C11.871 6.73855 11.8574 6.6766 12.207 6.52326C12.0924 6.54271 12.038 6.51353 11.9428 6.52326C11.9812 6.44172 12.1156 6.40281 12.25 6.26892C12.3844 6.13503 12.1646 5.93689 12.1646 5.93689L11.1406 6.55628L10.6455 7.13881L10.6463 7.1383Z" fill="#C49937"/>
<path fill-rule="evenodd" clip-rule="evenodd" d="M7.86768 6.67609L7.89097 6.48973L8.18422 6.01984L8.49104 5.19462V4.06643L8.46774 3.41401L8.51625 2.98675L8.55312 2.85094L8.59203 2.79846L8.8424 2.92851L9.18812 3.3984L9.22115 4.30528L8.88515 5.73632L7.92592 6.78297L7.86768 6.67609Z" fill="#DFC068"/>
<path fill-rule="evenodd" clip-rule="evenodd" d="M8.63078 2.74602C8.63078 2.74602 8.47718 2.74999 8.44441 3.38884C8.41164 4.02769 8.39577 4.36356 8.37247 4.6801C8.34918 4.99665 8.29491 5.18878 8.26764 5.37527C8.24038 5.56177 8.22489 5.81598 8.13759 5.97137C8.09919 6.04318 8.01715 6.26846 7.82489 6.43742C7.60934 6.62378 7.28729 6.75396 7.23852 6.76369C7.15302 6.78302 6.71999 6.82577 6.54335 6.92292C6.48127 6.95594 6.37439 6.99473 6.25599 7.10545C6.02099 7.31703 5.70841 7.69566 5.48313 8.15198C5.13753 8.83358 4.79193 10.7578 4.79193 10.7578L4.86963 10.6278C4.86963 10.6278 4.87936 10.455 5.05216 10.152C5.22112 9.84913 5.1726 9.50929 5.40748 8.92868C5.49875 8.70737 5.61331 8.42001 5.75308 8.17527C5.97452 7.77719 6.24243 7.43543 6.51238 7.24906C6.95308 6.94622 7.43859 6.88017 7.43859 6.88017L7.96095 6.53457C7.96095 6.53457 8.05222 6.35793 8.17267 6.15594C8.3415 5.87255 8.55667 5.55601 8.60364 5.09585C8.67558 4.41425 8.50265 3.96766 8.51238 3.56382C8.52211 3.15998 8.52595 2.86289 8.60761 2.79095C8.68927 2.71902 8.63091 2.74628 8.63091 2.74628L8.63078 2.74602Z" fill="#A88F33"/>
<path fill-rule="evenodd" clip-rule="evenodd" d="M8.63081 5.79455C8.63081 5.79455 8.86121 5.22751 8.96668 4.7246C8.98614 4.6236 9.02492 4.52274 9.03465 4.4412C9.08316 3.96543 9.09673 3.76933 9.03465 3.50911C8.98614 3.31711 8.79977 3.14405 8.70262 3.00991C8.60751 2.87 8.56284 2.81791 8.5823 2.78847C8.60175 2.75903 8.6774 2.7109 8.75113 2.71666C8.8295 2.71894 8.90659 2.73714 8.97771 2.77014C9.04883 2.80315 9.11249 2.85028 9.16483 2.90866C9.31434 3.08146 9.43274 3.66796 9.43274 3.66796L9.55728 4.44184L9.87383 5.41656L8.63106 5.79532L8.63081 5.79455Z" fill="#C99E3D"/>
<path fill-rule="evenodd" clip-rule="evenodd" d="M10.7958 5.20445C10.7958 5.20445 10.7531 5.22378 10.6755 5.20445C10.6788 5.23615 10.6733 5.26815 10.6596 5.29692C10.6459 5.32569 10.6245 5.35012 10.5978 5.36752C10.5163 5.3345 9.75301 5.40055 9.75301 5.40055C9.75301 5.40055 9.39768 5.33834 9.28696 4.86845C9.2094 4.55575 9.3452 4.12477 9.30053 3.84125C9.23256 3.42371 9.13746 3.34205 9.12773 3.21213C9.118 3.08221 9.10828 3.04906 9.10828 2.96752C9.06552 2.95779 9.04031 2.94423 8.99768 2.94423C8.98796 2.90583 9.00728 2.87229 8.96466 2.80432C8.98796 2.81405 9.14719 2.83351 9.33356 3.01015C9.48716 3.15389 9.48716 3.20624 9.51032 3.23543C9.53938 3.26448 9.77439 3.46583 9.87538 3.66653C9.97637 3.86723 10.1725 4.50723 10.2171 4.61207C10.2307 4.65482 10.2599 4.69757 10.3323 4.79459C10.445 4.9345 10.61 5.16579 10.7963 5.20419L10.7958 5.20445Z" fill="#B58634"/>
<path fill-rule="evenodd" clip-rule="evenodd" d="M9.53766 3.24512C9.65529 3.43513 9.76096 3.63229 9.85408 3.83545C9.96864 4.09363 10.0366 4.30534 10.1803 4.47814C10.1027 4.25299 9.96479 3.81024 9.88326 3.65293C9.79199 3.48653 9.60563 3.30733 9.53766 3.24525V3.24512Z" fill="#A88F33"/>
<path fill-rule="evenodd" clip-rule="evenodd" d="M8.21724 6.43738C8.21724 6.43738 8.02114 6.4859 7.65609 6.67815C7.53564 6.74023 7.42121 6.79258 7.31049 6.84122C7.02288 6.97127 6.7144 7.09146 6.46966 7.15777C6.48912 7.18106 6.49872 7.19066 6.49872 7.19066C6.49872 7.19066 6.49872 7.2859 6.5512 7.34017C6.52214 7.36935 6.13366 7.63342 6.24835 8.51687C6.32592 8.48782 6.41718 8.4489 6.43075 8.4489C6.45417 8.45287 6.45993 8.51687 6.48899 8.51687C6.51805 8.51687 6.61328 8.47847 6.71427 8.34791C6.71043 8.40039 6.65219 8.92852 6.96476 9.28385C7.023 9.21588 7.17059 8.9906 7.17059 8.9906L7.17443 8.91879C7.17443 8.91879 7.188 8.6683 7.26966 8.43918C7.35132 8.21006 7.51043 8.0411 7.51043 8.0411L8.34127 6.85466L8.21698 6.43726L8.21724 6.43738Z" fill="#E6C367"/>
<path fill-rule="evenodd" clip-rule="evenodd" d="M7.44055 8.17947C7.40251 8.20635 7.3606 8.22728 7.31626 8.24155C7.3027 8.19304 7.28324 8.026 7.3978 7.86293C7.53182 7.6667 7.82494 7.41236 7.90647 7.21012C7.95895 7.07995 7.93566 6.7538 8.4017 6.33626C8.86775 5.91873 9.05015 5.77511 9.05015 5.77511L9.80356 5.39648L10.7298 5.76154L10.2696 7.56507L9.91236 8.40987L8.49156 8.14197L7.44042 8.17947H7.44055Z" fill="#DCBA5A"/>
<path fill-rule="evenodd" clip-rule="evenodd" d="M7.98291 7.68978L8.15968 7.46847V7.31115C8.15968 7.31115 8.35578 7.25867 8.56736 7.04312C8.77894 6.82757 9.07219 6.414 9.3305 6.43921C9.5888 6.4684 9.61402 7.00037 9.62375 7.15C9.63348 7.29963 9.6665 7.63922 9.71885 7.82188C9.77709 8.0044 9.08973 8.69561 9.08973 8.69561L8.62291 9.05094L7.98291 7.68978Z" fill="#E9CE77"/>
<path fill-rule="evenodd" clip-rule="evenodd" d="M8.52979 9.5325C8.52979 9.5325 8.67353 9.30722 8.56818 9.25871C8.63026 9.11893 8.74482 8.97135 8.74482 8.97135C8.74482 8.97135 8.82636 8.76949 9.09042 8.52092C9.35448 8.27234 9.51768 8.10722 9.56043 7.94031C9.58678 7.83153 9.60112 7.72018 9.60318 7.60828C9.63173 7.6316 9.66226 7.65237 9.69444 7.67036C9.73719 7.68981 9.93905 7.85672 9.90999 8.19272C9.88094 8.52872 9.75639 8.6685 9.75639 8.6685C9.75639 8.6685 9.63608 8.78882 9.5507 8.85103C9.45931 8.91311 9.42641 8.98492 9.27294 8.9908C9.28872 8.97826 9.30645 8.9684 9.32542 8.96162C9.32542 8.96162 9.16619 8.94229 9.08069 9.01986C8.99519 9.09743 8.81343 9.3364 8.72217 9.40834C8.6309 9.46658 8.53017 9.53263 8.53017 9.53263L8.52979 9.5325Z" fill="#CDAE50"/>
<path fill-rule="evenodd" clip-rule="evenodd" d="M14.9862 5.75573C14.7568 5.67212 14.5157 5.62496 14.2717 5.61596C13.8639 5.60239 13.2678 5.62568 12.6833 5.62953C12.0542 5.63337 11.4833 5.41397 10.6911 5.37519C10.5611 5.29749 10.2303 4.95765 9.19788 5.67804C9.25996 5.6742 9.94744 5.5188 10.1862 5.81794C10.4269 6.11503 10.359 6.61986 10.3261 6.74019C10.2639 7.00822 10.0619 7.39849 9.98047 7.67228C9.89906 7.94608 9.91826 8.08995 9.86002 8.28195C9.80178 8.47395 9.67365 8.56931 9.7493 8.79062C9.85029 8.72854 9.9029 8.72854 10.0716 8.34992C10.2403 7.97129 10.2056 7.70134 10.4853 7.38096C10.7591 7.05865 11.2149 6.61782 11.3882 6.5071C11.5615 6.39638 12.9377 5.68188 14.3785 6.36348C14.7261 6.32662 14.9863 5.75561 14.9863 5.75561L14.9862 5.75573Z" fill="#D2A83E"/>
<path fill-rule="evenodd" clip-rule="evenodd" d="M9.77834 5.49152C9.77692 5.47692 9.77369 5.46256 9.76874 5.44876C9.75527 5.42037 9.73757 5.39417 9.71626 5.37107C9.71626 5.37107 9.3745 5.30899 9.2017 5.32831C8.89872 5.36134 8.62492 5.73612 8.49679 5.92838C8.36866 6.12064 8.20943 6.4176 8.03663 6.57107C8.03852 6.55612 8.03508 6.54098 8.0269 6.52832C8.0269 6.52832 8.03663 6.54189 8.0173 6.56134C7.99797 6.5808 7.99784 6.5904 8.00757 6.59974L8.03676 6.6288C8.04636 6.6288 8.31439 6.50835 8.67945 6.168C9.06781 5.81267 9.3649 5.6304 9.52029 5.56793C9.60316 5.53272 9.68978 5.50708 9.77847 5.49152H9.77834Z" fill="#C29637"/>
<path fill-rule="evenodd" clip-rule="evenodd" d="M16.4075 4.03149C16.4075 4.03149 16.3453 4.10906 16.2676 4.19457C16.0948 4.37709 15.8696 4.58279 15.6773 4.7945C15.4949 4.99649 15.2891 5.1538 15.0579 5.41787C14.8267 5.68193 14.5587 5.97505 14.4909 6.06055C14.4288 6.14606 14.3803 6.28584 14.3803 6.35764C14.3473 6.33435 14.3085 6.30913 14.3085 6.30913C14.3248 6.33962 14.3443 6.36828 14.3667 6.39464C14.4152 6.4626 14.4909 6.54824 14.5298 6.60046C14.5775 6.66694 14.6118 6.74213 14.6306 6.82177C14.6539 6.82561 14.8034 6.8548 14.9899 6.54798C15.1764 6.24116 15.4209 5.90529 15.4209 5.90529L15.8093 5.32852L16.054 4.8393L16.3612 4.29172L16.4079 4.03149H16.4075Z" fill="#AC8132"/>
<path fill-rule="evenodd" clip-rule="evenodd" d="M16.8057 3.63928C16.8057 3.63928 16.5706 3.83128 16.4794 3.94648C16.3881 4.06169 16.1722 4.36402 16.1722 4.36402L16.2499 4.3543L16.6441 4.00485L16.7977 3.73106L16.8055 3.63979L16.8057 3.63928Z" fill="#A88F33"/>
<path fill-rule="evenodd" clip-rule="evenodd" d="M16.7338 19.0704C16.7338 19.0704 16.7299 18.9111 16.8193 18.816C16.9105 18.7208 17.1416 18.581 17.3668 18.0567C17.5921 17.5324 17.6172 17.414 17.6172 17.414C17.6172 17.414 17.2134 17.7596 16.9644 17.8412C17.0226 17.7207 17.0557 17.6353 17.0849 17.5731C17.0518 17.5441 16.9121 17.5111 16.8985 17.4956C16.9761 17.4179 17.0188 17.2275 17.1761 17.1013C17.3781 16.9477 17.747 16.6838 18.0337 16.4485C18.3204 16.2133 18.8842 15.6661 18.9561 15.5068C18.9988 15.5689 19.0084 15.6077 19.0084 15.6077C19.0084 15.6077 18.725 15.9767 18.5775 16.2116C18.4473 16.4136 18.457 16.5281 18.457 16.5281L18.725 16.4129C18.725 16.4129 18.8026 16.7003 18.4513 17.1373C18.6049 17.0791 18.6668 17.114 18.7541 17.0654C18.6104 17.1568 18.4123 17.281 18.226 17.6227C18.0434 17.9644 17.7949 18.3625 17.3755 18.611C16.9677 18.8731 16.7327 19.0692 16.7327 19.0692L16.7338 19.0704Z" fill="#A67A2E"/>
<path fill-rule="evenodd" clip-rule="evenodd" d="M15.6813 5.95787C15.6813 5.95787 15.5221 6.28977 15.4988 6.54807C15.4949 6.61028 15.4793 6.65879 15.4793 6.7306C15.4755 6.96164 15.4929 7.21994 15.4409 7.34026C15.4215 7.29175 15.4117 7.25873 15.3923 7.2394C15.3632 7.32093 15.3107 7.57527 15.268 7.67037C15.2487 7.60829 15.2059 7.39274 15.2099 7.13841C15.2138 6.88407 15.2195 6.83543 15.2195 6.78308C15.2099 6.86065 15.1574 6.96561 15.1379 7.02769C15.1089 6.97534 15.0759 6.90737 15.0369 6.85105C15.0137 6.88945 14.9846 6.94615 14.9594 6.97534C14.9554 6.95204 14.9458 6.88983 14.9399 6.80254C14.9361 6.70155 14.9302 6.5715 14.9361 6.54423C14.9457 6.49188 15.0273 6.28606 15.2001 6.09764C15.406 5.87236 15.6177 5.43947 15.6798 5.30546C15.7418 5.17144 16.0059 4.61426 16.0059 4.61426H16.2079L15.9146 5.28216C15.9146 5.28216 15.738 5.64721 15.6467 5.78136C15.5555 5.9155 15.3632 6.29988 15.2777 6.44939C15.3398 6.36785 15.3923 6.3251 15.4545 6.2474C15.5146 6.193 15.6816 5.95812 15.6816 5.95812L15.6813 5.95787Z" fill="#8C6228"/>
<path fill-rule="evenodd" clip-rule="evenodd" d="M16.8095 3.61401C16.7765 3.71556 16.7243 3.80985 16.6559 3.89177C16.5354 4.03552 16.2771 4.22765 16.151 4.38099C16.0358 4.53049 15.8054 4.9383 15.9101 5.42176C15.9485 5.31693 16.0209 5.10918 16.2131 4.87417C16.4054 4.63917 16.6112 4.36934 16.7123 4.15968C16.8132 3.94797 16.8267 3.78105 16.8267 3.78105L16.8651 3.73254L16.8418 3.62182L16.8088 3.61401H16.8095Z" fill="#CBA94C"/>
<path fill-rule="evenodd" clip-rule="evenodd" d="M20.7416 16.4936C20.7416 16.4936 20.6639 16.282 20.6406 16.0897C20.6173 15.8975 20.679 15.8593 20.6075 15.6393C20.5648 15.5053 20.4872 15.5241 20.4678 15.5053C20.4483 15.4865 20.4347 15.284 20.4386 15.1733C20.4424 15.0625 20.4347 14.9189 20.4153 14.8567C20.3862 14.8334 20.3668 14.814 20.324 14.6703C20.2755 14.5266 20.2522 14.4548 20.2289 14.4122C20.2056 14.3695 20.1375 14.3306 20.1375 14.2879C20.1375 14.2024 20.2152 14.1578 20.2152 14.1343C20.2114 14.0858 20.1531 14.1247 20.1375 14.111C20.1182 14.0877 20.1862 13.9479 20.161 13.9285C20.1512 13.9189 20.0833 14.0004 20.0657 13.9771C20.0463 13.9537 20.023 13.7226 19.988 13.5693C19.9551 13.4198 19.9201 13.3111 19.9162 13.2664C19.9124 13.2237 19.6482 12.4703 19.5842 12.2877C19.5326 12.1335 19.4892 11.9767 19.4541 11.8179C19.4347 11.7266 19.4211 11.5401 19.4114 11.5596C19.4017 11.579 19.4075 11.6741 19.3919 11.6703C19.3784 11.6663 19.3298 11.3344 19.3144 11.2819C19.3008 11.2294 19.2191 11.0515 19.1992 10.9228C19.1797 10.7926 19.1371 10.4527 19.1079 10.2217C19.0787 9.99066 19.0651 9.89556 19.0651 9.8377C19.0699 9.69619 19.0621 9.55454 19.0418 9.4144C19.0034 9.16967 18.9266 8.87258 18.8593 8.69991C18.7293 8.37364 18.3835 7.53869 18.3217 7.33095C18.3217 7.27847 18.3897 7.30765 18.3897 7.30765C18.3897 7.30765 18.5585 7.73095 18.6828 8.05709C18.8033 8.38336 18.9178 8.67072 18.947 8.69991C18.9703 8.72896 19.1528 9.04935 19.2344 9.57364C19.3159 10.0979 19.345 10.5814 19.3936 10.9037C19.4169 11.0573 19.4363 11.2202 19.4849 11.3833C19.5372 11.5601 19.6187 11.7426 19.7256 12.0221C19.8169 12.2572 19.8849 12.4533 19.9217 12.6222C19.9645 12.8378 19.9645 13.0008 19.9897 13.1077C20.0131 13.199 20.0479 13.3814 20.1296 13.6453C20.2113 13.9093 20.3314 14.2492 20.413 14.4608C20.5723 14.8841 20.6434 15.2375 20.6675 15.4259C20.6887 15.6201 20.7606 16.292 20.7412 16.4938L20.7416 16.4936Z" fill="#A88F33"/>
<path fill-rule="evenodd" clip-rule="evenodd" d="M16.8192 3.59073L16.8095 3.61403C16.8095 3.61403 16.8385 3.62376 16.8328 3.66267C16.8332 3.71591 16.8299 3.76911 16.8231 3.8219C16.8135 3.88987 16.794 3.94222 16.7902 3.98497C16.7902 4.07624 16.8037 4.18107 16.675 4.4413C16.6366 4.5131 16.6129 4.57518 16.5934 4.61794C16.5449 4.72277 16.5352 4.73838 16.4924 4.7869C16.5604 4.7485 16.8051 4.5949 16.9293 4.61794C16.8439 4.66645 16.7137 4.76168 16.6322 4.88597C16.6517 4.88981 16.7332 4.90543 16.8626 4.88597C17.0782 4.85294 17.3189 4.77525 17.5305 4.79074C17.7617 4.8043 17.6704 4.5131 17.6704 4.5131L17.4036 3.92673L16.8988 3.57153L16.8192 3.59086V3.59073Z" fill="#BE9C44"/>
<path fill-rule="evenodd" clip-rule="evenodd" d="M18.1357 7.98308C18.1357 7.98308 17.9104 7.7578 17.8192 6.98468C17.7279 6.20798 17.7474 5.06468 17.7474 5.06468L17.5648 4.61809C17.5648 4.61809 17.5264 4.321 17.4308 4.21041C17.3352 4.09982 17.1474 3.91332 17.0619 3.82206C16.9764 3.73079 16.8794 3.6065 16.8212 3.58705C16.8502 3.53854 16.9804 3.26474 17.4793 3.2609C17.9783 3.25706 18.1321 3.5347 18.1842 3.63569C18.2363 3.73668 18.4716 4.17329 18.5589 5.00529C18.6404 5.83626 18.6444 5.89847 18.6308 6.18583C18.6211 6.34506 18.5686 6.71396 18.4772 7.10807C18.3938 7.44215 18.3025 7.81502 18.1355 7.98385L18.1357 7.98308Z" fill="#A17C34"/>
<path fill-rule="evenodd" clip-rule="evenodd" d="M17.4293 8.64513C17.5044 8.65055 17.5794 8.63362 17.6449 8.59649C17.7167 8.59265 17.9769 8.62567 18.1768 8.37134C18.1904 8.42945 18.2255 8.58689 18.1341 8.72666C18.1827 8.67802 18.2545 8.6587 18.2643 8.64513C18.2681 8.71694 18.3361 8.93825 18.0487 9.4761C18.1263 9.39073 18.2175 9.39457 18.2991 9.38484C18.303 9.48583 18.3573 9.82554 18.2137 10.0082C18.1186 10.1325 17.9632 10.0936 17.9632 10.0936C17.9655 10.0664 17.9655 10.0392 17.9632 10.012C17.9594 9.95956 17.9399 9.9072 17.9536 9.87226C17.8785 9.83796 17.8101 9.79059 17.7516 9.73236C17.5826 9.57313 17.3632 9.30138 17.3478 9.0994C17.3283 8.87412 17.5303 8.82561 17.5303 8.82561C17.5134 8.81047 17.4989 8.79276 17.4875 8.77313C17.4778 8.74023 17.4681 8.68775 17.4293 8.64513Z" fill="#8C6228"/>
<path fill-rule="evenodd" clip-rule="evenodd" d="M15.9317 6.20242C15.9317 6.20242 15.922 6.18885 15.8696 6.25093C15.8794 6.18885 15.8891 6.13048 15.8929 6.07416C15.9177 6.02202 15.9498 5.97366 15.9882 5.93054C15.959 5.98866 15.9395 6.04114 15.9395 6.04114C15.9395 6.04114 16.0115 5.90712 16.1163 5.82558C16.1881 5.76734 16.2794 5.74021 16.3181 5.68581C16.3609 5.62757 16.3512 5.61784 16.3609 5.60811C16.3609 5.60811 16.4561 5.54603 16.6018 5.36338C16.6211 5.34008 16.6503 5.31486 16.6697 5.29157C16.7026 5.278 16.7803 5.24306 16.8716 5.19634C16.9668 5.14398 17.0736 5.07218 17.1396 5.04274C17.2697 4.9845 17.4077 4.99038 17.4717 4.89899C17.5202 4.88542 17.5725 4.73976 17.5629 4.6156C17.6347 4.64466 18.0036 4.87378 18.13 5.37477C18.2212 5.7301 18.058 6.27768 17.9901 6.54187C17.9221 6.80606 17.9125 7.00203 17.8173 7.12235C17.6968 7.28171 17.3086 7.50635 17.2134 7.61758C17.1318 7.70885 16.8872 7.93989 16.8968 8.1068C16.9065 8.23109 17.0599 8.2988 17.093 8.32235C17.1262 8.3459 17.1259 8.37483 17.1881 8.36075C17.2504 8.34667 17.2735 8.318 17.2989 8.318C17.3279 8.32184 17.3279 8.32773 17.3415 8.32773C17.3513 8.32743 17.3611 8.3261 17.3707 8.32376C17.3707 8.32376 17.3609 8.50053 16.9474 8.55416C16.9182 8.55813 16.8891 8.56773 16.8521 8.57362C16.9008 8.55032 16.9298 8.55032 16.9823 8.47851C16.9241 8.46878 16.757 8.45906 16.7143 8.44549C16.7279 8.42219 16.7725 8.35998 16.8094 8.33093C16.8424 8.30187 16.8056 8.29253 16.7765 8.30763C16.7265 8.34167 16.6785 8.37859 16.6328 8.41822C16.5842 8.46098 16.5415 8.51922 16.4638 8.57182C16.4405 8.49413 16.4443 8.34654 16.5357 8.23979C16.5123 8.24363 16.4676 8.3116 16.425 8.29803C16.4173 8.22721 16.4219 8.15558 16.4386 8.08632C16.4619 7.9989 16.5881 7.84555 16.5881 7.84555L17.1977 6.75614L17.3278 5.93093L15.9317 6.20216V6.20242Z" fill="#92723A"/>
<path fill-rule="evenodd" clip-rule="evenodd" d="M15.8988 6.24894C15.8988 6.24894 15.8658 6.27223 15.9319 6.31691C15.9221 6.33047 15.8988 6.37899 15.8696 6.41201C15.8367 6.45041 15.8017 6.47422 15.7881 6.50724C15.7591 6.57521 15.7358 6.6218 15.7358 6.65099C15.7358 6.68017 15.726 6.86654 15.6445 6.98686C15.6153 7.02961 15.5823 7.10142 15.559 7.14993C15.5105 7.23531 15.4677 7.30353 15.458 7.34193C15.4387 7.4099 15.4251 7.59627 15.4251 7.59627C15.4251 7.59627 15.4678 7.54379 15.4833 7.52446C15.4599 7.57297 15.4347 7.62532 15.3978 7.66423C15.4211 7.64478 15.4891 7.59627 15.6037 7.49527C15.7629 7.36139 16.0115 7.13611 16.3145 6.95767C16.2231 6.9907 16.1455 6.9907 16.0834 7.00043C16.1319 6.95191 16.5688 6.43927 16.7979 6.39076C16.8118 6.37312 16.8188 6.35098 16.8174 6.32855L16.6212 6.30923L16.2231 6.3946L16.1649 6.0874L15.8988 6.24855V6.24894Z" fill="#B18E3E"/>
<path fill-rule="evenodd" clip-rule="evenodd" d="M16.5319 7.99652C16.5319 7.99652 16.4794 8.04887 16.4309 8.17904C16.3935 8.14004 16.3615 8.09627 16.3357 8.04887C16.2638 7.92855 16.1533 7.77508 15.895 7.8625C15.8911 7.78096 15.8852 7.73821 15.895 7.67997C15.9377 7.67037 16.0678 7.56554 16.1978 7.41207C16.2892 7.30724 16.3746 7.18679 16.4328 7.03344C16.4712 7.00426 16.5376 6.95575 16.6248 6.89943C16.7491 6.81405 16.8986 6.69744 16.9219 6.5674C16.8637 6.59069 16.7394 6.64893 16.5529 6.63933C16.6248 6.60631 16.7354 6.57136 16.7218 6.42762C16.751 6.40816 16.7743 6.3946 16.7743 6.3946C16.7524 6.3873 16.7294 6.384 16.7063 6.38487C16.7024 6.3713 16.6966 6.35197 16.6636 6.36157C16.6306 6.37117 16.6252 6.3713 16.6208 6.38487C16.6073 6.38884 16.5626 6.38487 16.5296 6.40829C16.4965 6.43172 16.4053 6.50916 16.3703 6.52272C16.3839 6.49943 16.4032 6.46461 16.4032 6.46461C16.4032 6.46461 16.3081 6.47421 16.2402 6.50301C16.1159 6.54576 15.9723 6.62346 15.8266 6.69911C15.8402 6.67581 15.8461 6.66071 15.8557 6.65636C15.8653 6.652 15.8887 6.64676 15.8887 6.64279C15.8887 6.63882 15.8791 6.60439 15.8848 6.59044C15.9284 6.49818 15.9798 6.40983 16.0384 6.32637C16.1064 6.23498 16.12 6.10493 16.12 6.10493L16.4171 5.95543L17.252 5.76343L17.7938 5.79645L17.7259 6.17124L17.4059 6.82557L17.1321 7.42167L16.8194 7.78685L16.532 7.99652H16.5319Z" fill="#543E26"/>
<path fill-rule="evenodd" clip-rule="evenodd" d="M17.8852 6.37462C17.8852 6.37462 17.5589 6.77846 17.4676 6.84067C17.5259 6.71638 17.8852 5.97654 18.0152 5.77072C17.9862 5.74742 17.9473 5.74742 18.0385 5.38672C17.9609 5.56912 17.9337 5.66435 17.8697 5.71286C17.8057 5.76137 17.7977 5.74589 17.7545 5.74589C17.7627 5.73111 17.766 5.71415 17.7641 5.69737C17.7641 5.69737 17.4903 5.66435 17.3033 5.66435C17.1163 5.66435 16.7461 5.76534 16.5402 5.84688C16.3771 5.91485 16.2858 5.91485 16.2276 5.95747C16.1694 6.00598 16.1363 6.05846 16.1071 6.07203C16.0838 6.0856 15.9733 6.12054 15.9479 6.15741C15.9246 6.19581 15.8858 6.23894 15.8858 6.24867C15.8858 6.2584 15.8761 6.27209 15.9053 6.26224C15.9149 6.2584 15.9868 6.21949 16.0684 6.17097C16.179 6.10889 16.313 6.03709 16.4101 5.99433C16.6877 5.88361 16.7752 5.90307 16.8993 5.87977C17.0294 5.85648 17.2159 5.80208 17.34 5.80208C17.4643 5.79824 17.6993 5.80208 17.7537 5.81181C17.7304 5.83126 17.711 5.85456 17.7207 5.93609C17.7207 5.95939 17.7012 5.98461 17.6823 6.04093C17.6242 6.20016 17.5135 6.46422 17.4519 6.59824C17.3665 6.78064 17.2695 6.93411 17.2215 7.02921C17.1735 7.12432 17.0679 7.37481 16.9633 7.50883C16.8588 7.64285 16.8041 7.72438 16.7713 7.75357C16.7386 7.78275 16.5033 7.95542 16.5208 8.01763C16.5636 8.00406 16.8335 7.90243 17.0295 7.68176C17.2255 7.46109 17.2645 7.32643 17.4178 7.20598C17.5712 7.08553 17.6916 6.88368 17.7634 6.71677C17.8236 6.56137 17.81 6.51286 17.8857 6.37501L17.8852 6.37462Z" fill="#806031"/>
<path fill-rule="evenodd" clip-rule="evenodd" d="M10.8542 9.38883C10.8542 9.38883 10.8114 9.56547 10.7142 9.6529C10.6191 9.7384 10.4502 9.81213 10.4309 9.95587C10.4076 10.0995 10.5998 10.1714 10.5998 10.1714C10.5998 10.1714 10.4949 10.3442 10.4949 10.4743C10.4949 10.6083 10.491 10.6335 10.5046 10.7616C10.4892 10.7715 10.4761 10.7846 10.4662 10.8C10.4662 10.8 10.4758 10.9243 10.571 11.0019C10.6662 11.0795 10.7477 11.1262 10.7962 11.1067C10.8036 11.1225 10.8101 11.1388 10.8156 11.1554C10.8156 11.1554 10.8876 10.9728 10.9361 10.8136C10.9846 10.6505 11.0273 10.6737 11.0467 10.4543C11.066 10.2349 11.2771 9.85821 11.2771 9.85821L11.4211 9.53629L11.1862 9.35376L10.8542 9.3887V9.38883Z" fill="#B6903C"/>
<path fill-rule="evenodd" clip-rule="evenodd" d="M11.291 9.7052C11.2426 9.75492 11.1979 9.80814 11.1573 9.86443C11.0952 9.94994 11.0467 10.0275 10.9554 10.0607C10.8642 10.0938 10.8059 10.0936 10.8117 10.1849C10.8174 10.2763 10.9029 10.315 10.9514 10.3616C11.0039 10.4101 11.0467 10.4916 11.0234 10.583C11.0524 10.5695 11.1049 10.5538 11.1534 10.449C11.2019 10.3442 11.5413 9.70533 11.5413 9.70533H11.291V9.7052Z" fill="#685026"/>
<path fill-rule="evenodd" clip-rule="evenodd" d="M12.6292 8.23148C12.6292 8.23148 12.6583 8.15391 12.6292 8.09759C12.6001 8.03935 12.4234 8.01989 12.336 7.95385C12.2447 7.88588 12.134 7.83865 12.0427 7.86847C12.0563 7.83545 12.1107 7.76351 12.066 7.74802C12.0233 7.73446 11.8642 7.80626 11.8214 7.83929C11.7787 7.87231 11.6815 7.9111 11.6622 7.93452C11.6429 7.95794 11.6097 8.00249 11.5903 7.98303C11.5708 7.96946 11.5612 7.93452 11.5282 7.95385C11.4952 7.97317 11.3362 8.10335 11.3069 8.17913C11.2776 8.2549 11.2116 8.42386 11.0136 8.61599C10.8156 8.80812 10.7301 8.93253 10.7884 9.00434C10.8466 9.07615 10.8739 9.0238 10.8836 9.08588C10.8911 9.14682 10.8878 9.2086 10.8739 9.2684C10.8506 9.36939 10.8118 9.4645 10.8641 9.48395C10.9981 9.52671 11.1283 9.44555 11.1574 9.47039C11.2156 9.52274 11.1244 9.71115 11.2622 9.74802C11.4021 9.78642 11.54 9.71499 11.54 9.71499L12.0486 9.4412L12.538 9.18303L12.7883 8.6878L12.6541 8.27423L12.6285 8.23148H12.6292Z" fill="#D4B968"/>
<path fill-rule="evenodd" clip-rule="evenodd" d="M12.1493 9.41412C12.1493 9.41412 12.0638 9.28407 12.1687 9.16938C12.2737 9.0547 12.4231 9.00631 12.4813 8.9345C12.4702 8.92083 12.4554 8.91072 12.4386 8.90545C12.4772 8.83627 12.5362 8.78064 12.6075 8.74609C12.5785 8.71703 12.5396 8.69374 12.4969 8.69374C12.4017 8.69374 12.3433 8.75198 12.256 8.75198C12.1707 8.75198 12.1609 8.70922 12.1609 8.70922C12.1609 8.70922 12.3047 8.69566 12.291 8.63153C12.2774 8.56356 12.2526 8.56356 12.2526 8.56356C12.2526 8.56356 12.5302 8.44836 12.5787 8.38692C12.6272 8.32548 12.6215 8.25291 12.6312 8.22385C12.6641 8.22385 12.8564 8.12286 12.9341 8.16561C13.0118 8.20836 12.9574 8.32484 12.9574 8.32484C12.9574 8.32484 13.1925 8.14807 13.3123 7.97476C13.4171 7.98449 13.4659 7.90295 13.5427 7.90295C13.6379 7.90295 13.7874 8.033 13.8165 8.31063C13.8359 8.46986 13.865 8.56113 13.8359 8.84273C13.8224 9.00196 13.8262 9.34193 13.8743 9.51063C13.9072 9.64465 13.9849 9.63108 13.9849 9.63108C13.973 9.67191 13.9494 9.70836 13.917 9.73591C13.8645 9.78442 13.8587 9.91268 13.8645 9.96119C13.8722 9.99666 13.882 10.0317 13.8937 10.066C13.8937 10.066 13.8316 10.1378 13.816 10.1865C13.8024 10.235 13.7384 10.268 13.6917 10.268C13.645 10.268 13.6684 10.264 13.6063 10.268C13.5442 10.272 13.5248 10.2816 13.4859 10.268C13.447 10.2544 13.4179 10.2388 13.4335 10.1144C13.4471 9.99012 12.9539 9.70084 12.9539 9.70084L12.1475 9.41348L12.1493 9.41412Z" fill="#CCA849"/>
<path fill-rule="evenodd" clip-rule="evenodd" d="M11.2231 10.6412C11.2231 10.6412 11.3997 10.8762 12.126 10.8762C12.4716 10.8762 12.592 10.8432 12.6636 10.8237C12.7413 10.8043 13.0325 10.6899 13.3257 10.3441C13.5898 10.0316 13.5316 9.90342 13.5316 9.90342L13.378 9.88013L12.8788 9.94809L11.4016 10.5772L11.2224 10.6412H11.2231Z" fill="#585136"/>
<path fill-rule="evenodd" clip-rule="evenodd" d="M11.7648 10.6994C11.7648 10.6994 11.1357 10.8393 11.1357 10.4412C11.1357 10.0529 11.524 9.64508 11.6212 9.57328C11.7222 9.50134 11.9629 9.41968 11.9629 9.41968H12.5436L12.6541 9.71292L12.6056 10.3459L11.7648 10.6993V10.6994Z" fill="#252211"/>
<path fill-rule="evenodd" clip-rule="evenodd" d="M12.3454 9.53832C12.3454 9.53832 12.2251 9.4276 11.9513 9.57672C11.6775 9.72584 11.4561 10.0375 11.4425 10.3205C11.4289 10.5709 11.6483 10.7574 11.9901 10.7671C12.2444 10.7767 12.3979 10.7477 12.4756 10.7287C12.4561 10.7054 12.3551 10.5792 12.3551 10.5792L12.3455 9.53845L12.3454 9.53832Z" fill="#C3B378"/>
<path fill-rule="evenodd" clip-rule="evenodd" d="M12.2269 9.60031C12.2269 9.60031 12.1979 9.57701 12.1118 9.6236C12.0399 9.662 11.9351 9.7635 11.8536 9.83531C11.8011 9.87806 11.7681 9.89739 11.7384 9.93041C11.6179 10.0742 11.5169 10.3092 11.5753 10.4256C11.6337 10.5421 11.8258 10.6761 12.3151 10.5849L12.2255 9.60043L12.2269 9.60031Z" fill="#E6D89C"/>
<path fill-rule="evenodd" clip-rule="evenodd" d="M12.0677 9.84121C12.0677 9.84121 11.99 9.96166 11.99 10.1539C11.99 10.35 12.1007 10.6626 12.5085 10.6859C12.8211 10.7053 13.0308 10.2355 13.258 10.0529C13.4308 9.91314 13.5356 9.90918 13.5356 9.90918C13.5356 9.90918 13.359 9.71718 12.8872 9.46847C12.4211 9.21797 11.8988 9.18495 11.6152 9.56946C11.7492 9.55974 12.1823 9.44901 12.1823 9.44901L12.394 9.51698L12.0677 9.84134V9.84121Z" fill="#252211"/>
<path fill-rule="evenodd" clip-rule="evenodd" d="M12.6774 10.0955C12.6638 10.0664 12.6541 10.0275 12.7104 10.0179C12.7667 10.0083 12.7919 10.014 12.8114 10.0563C12.8308 10.0987 12.8498 10.134 12.821 10.1515C12.7919 10.167 12.7162 10.1515 12.6772 10.0952L12.6774 10.0955ZM12.5861 9.8217C12.5861 9.8217 12.5667 9.83526 12.5764 9.80813C12.5802 9.77523 12.6056 9.71686 12.6676 9.73056C12.7297 9.74426 12.7163 9.8121 12.706 9.83155C12.6958 9.85101 12.644 9.8839 12.6051 9.86995C12.6001 9.86869 12.5956 9.86628 12.5917 9.86293C12.5879 9.85957 12.5849 9.85536 12.583 9.85063C12.5811 9.84591 12.5804 9.8408 12.5808 9.83573C12.5813 9.83066 12.5829 9.82576 12.5856 9.82144L12.5861 9.8217Z" fill="#6F674D"/>
<path fill-rule="evenodd" clip-rule="evenodd" d="M7.33008 9.94593C7.33008 9.94593 7.48368 10.0611 7.66211 10.0566C7.83875 10.0527 8.06595 9.87028 8.17078 9.75367C8.23286 9.6857 8.28598 9.61389 8.34358 9.55757C8.39222 9.50906 8.42512 9.48577 8.44841 9.45274C8.48144 9.41434 8.51638 9.34215 8.53392 9.31873C8.49117 9.35175 8.42909 9.41012 8.36496 9.4489C8.30288 9.4873 8.16886 9.55949 8.11446 9.57895C8.06211 9.59841 7.51837 9.88615 7.51837 9.88615L7.33008 9.94593Z" fill="#AC924C"/>
<path fill-rule="evenodd" clip-rule="evenodd" d="M7.56482 8.5111C7.56482 8.5111 7.65019 8.45286 7.81531 8.41587C7.97455 8.37747 8.29493 8.3479 8.29493 8.3479L8.559 8.4631L8.66383 8.86118L8.47183 9.27488L8.22722 9.42848L7.94946 8.98188L7.56546 8.51187L7.56482 8.5111Z" fill="#9F8E57"/>
<path fill-rule="evenodd" clip-rule="evenodd" d="M7.2192 8.86648L7.12781 8.93471C7.12781 8.93471 7.15123 8.89195 7.17056 8.7619C7.18989 8.63186 7.29101 8.31531 7.43859 8.13278C7.58618 7.95025 7.58234 7.95998 7.58234 7.95998C7.56876 7.95749 7.5548 7.95793 7.5414 7.96127C7.52801 7.9646 7.51547 7.97075 7.50464 7.97931C7.5241 7.9363 7.64838 7.7827 7.77267 7.7059C7.89696 7.6291 7.94547 7.6049 8.07552 7.6675C8.20557 7.73009 8.23859 7.7626 8.33383 7.75876C8.42906 7.75492 8.51047 7.65393 8.51047 7.65393C8.51047 7.65393 8.52992 7.71601 8.45811 7.85975C8.38631 8.0035 8.10279 8.29662 8.10279 8.29662L7.51245 8.70046L7.2192 8.86687V8.86648Z" fill="#EAC970"/>
<path fill-rule="evenodd" clip-rule="evenodd" d="M7.65597 8.46258C7.65597 8.46258 8.08323 8.52082 8.21328 8.4005C8.21712 8.41407 8.23274 8.41407 8.23274 8.4238C8.23169 8.43113 8.22827 8.43792 8.22301 8.44312C8.23715 8.44087 8.25144 8.43958 8.26576 8.43928C8.28286 8.44437 8.30045 8.44764 8.31824 8.44901C8.33257 8.4487 8.34685 8.44738 8.36099 8.44504C8.35964 8.4547 8.35636 8.46398 8.35135 8.47233C8.34633 8.48069 8.33969 8.48795 8.33181 8.49368C8.35126 8.49368 8.37021 8.49752 8.37021 8.51301C8.37021 8.5285 8.37405 8.57522 8.35075 8.58495C8.33145 8.59029 8.31091 8.58889 8.29251 8.58098C8.29405 8.61774 8.30404 8.65366 8.3217 8.68594C8.3601 8.75775 8.44202 8.83954 8.5521 8.81599C8.5521 8.81599 8.61021 8.95576 8.3656 9.26642C8.3327 9.30917 8.29763 9.36741 8.25501 9.41592C8.23817 9.45263 8.22529 9.49104 8.21661 9.53048C8.21661 9.53048 8.6303 9.37125 8.7487 9.00812C8.86915 8.64306 8.89245 8.28389 8.86915 7.94802C8.86518 7.85279 8.8497 7.78495 8.8264 7.73631C8.76816 7.61586 8.60496 7.63532 8.53904 7.70328C8.44381 7.79852 8.28458 8.03532 8.06326 8.19839C7.83798 8.36146 7.82838 8.39039 7.65546 8.46258H7.65597Z" fill="#D7BC6B"/>
<path fill-rule="evenodd" clip-rule="evenodd" d="M7.14342 8.98689C7.14342 8.98689 7.06188 9.0354 7.01913 9.21729C6.97638 9.40366 7.05753 9.63086 7.10451 9.70267C7.15149 9.77448 7.25811 9.9707 7.4793 9.98043C7.53405 9.98014 7.58819 9.96891 7.63854 9.9474C7.71576 9.912 7.78818 9.86697 7.8541 9.81339C7.94933 9.74158 8.02691 9.6795 8.01718 9.67361C7.99388 9.66388 7.43079 9.19784 7.43079 9.19784L7.21907 8.96155L7.14329 8.98715L7.14342 8.98689Z" fill="#585136"/>
<path fill-rule="evenodd" clip-rule="evenodd" d="M7.67564 9.7597C7.67564 9.7597 7.7902 9.7501 7.85817 9.70735C7.92614 9.66459 7.46008 9.20251 7.46008 9.20251L7.49311 9.70171L7.67564 9.7597Z" fill="#453A25"/>
<path fill-rule="evenodd" clip-rule="evenodd" d="M7.18034 8.95188C7.18034 8.95188 7.1221 9.0626 7.1221 9.09178C7.11237 9.18689 7.14156 9.4859 7.16485 9.581C7.18815 9.68199 7.31436 9.83534 7.47756 9.83534C7.57842 9.83534 7.71832 9.77326 7.71832 9.75777C7.71832 9.73831 7.57458 9.71937 7.53579 9.64705C7.5125 9.60865 7.50277 9.51316 7.49739 9.41665C7.49355 9.35457 7.49356 9.2866 7.51685 9.26305C7.56933 9.20481 7.57893 9.03777 7.57893 9.03777L7.7653 8.69153H7.52018L7.22693 8.87406L7.18034 8.95188Z" fill="#84754B"/>
<path fill-rule="evenodd" clip-rule="evenodd" d="M7.10852 9.05871C7.10852 9.05871 7.30052 8.80437 7.47357 8.746C7.64663 8.68764 7.72407 8.72271 7.72407 8.72271L7.62308 8.98101L7.47933 9.14024L7.48906 9.22178C7.48906 9.22178 7.46564 9.43733 7.60938 9.58683C7.75312 9.73633 7.85987 9.73057 7.92208 9.73057C7.98429 9.73057 8.16285 9.67809 8.25411 9.46254C8.33564 9.26069 8.40361 9.00175 8.24054 8.74216C8.08118 8.48386 7.79971 8.47388 7.74531 8.47388C7.69091 8.47388 7.26378 8.49525 7.10852 9.05832V9.05871Z" fill="#252211"/>
<path fill-rule="evenodd" clip-rule="evenodd" d="M12.0386 9.92267C11.9667 9.88965 12.0347 9.68779 12.1065 9.62559C12.1783 9.56338 12.2696 9.4917 12.429 9.48184C12.4871 9.478 12.5434 9.51487 12.5338 9.55378C12.5202 9.62559 12.4192 9.72658 12.328 9.79839C12.2018 9.89746 12.1201 9.95954 12.0386 9.92267Z" fill="#F7F7E7"/>
<path fill-rule="evenodd" clip-rule="evenodd" d="M8.15505 8.82178C8.20753 8.81794 8.2755 8.86018 8.28907 8.91701C8.30264 8.97909 8.25605 9.10338 8.15505 9.10338C8.07352 9.10338 8.03076 9.00239 8.03076 8.97333C8.03168 8.94944 8.03836 8.92612 8.05022 8.90536C8.05406 8.89947 8.06379 8.8315 8.15505 8.82178Z" fill="#F8F6DE"/>
<path fill-rule="evenodd" clip-rule="evenodd" d="M7.39779 8.86658C7.39779 8.86658 7.26378 8.92866 7.2017 9.05857C7.15734 9.15451 7.14392 9.26187 7.1633 9.36577C7.17303 9.41428 7.22154 9.5346 7.25456 9.57735C7.28759 9.6201 7.33226 9.64928 7.36528 9.64532C7.39831 9.64135 7.46615 9.55405 7.46615 9.5017C7.46615 9.44935 7.47012 9.22791 7.53412 9.10747C7.59044 8.98715 7.39818 8.86671 7.39818 8.86671L7.39779 8.86658Z" fill="#D4C38B"/>
<path fill-rule="evenodd" clip-rule="evenodd" d="M7.41726 8.85666C7.39396 8.87022 7.35518 8.88968 7.36478 8.9149C7.37451 8.93819 7.45604 8.95329 7.48523 9.01013C7.51825 9.06836 7.51825 9.13044 7.50852 9.15963C7.53389 9.14758 7.5569 9.13111 7.57649 9.11099C7.61924 9.06248 7.6716 8.99656 7.71627 8.99656C7.74545 8.99656 7.77451 9.01013 7.80177 9.01013C7.84452 9.01013 7.88715 8.99656 7.89304 8.95189C7.90264 8.89365 7.8115 8.84117 7.75902 8.8509C7.76875 8.8125 7.78232 8.75579 7.73956 8.71688C7.69681 8.67797 7.56292 8.74607 7.53374 8.76552C7.50456 8.78498 7.41726 8.85678 7.41726 8.85678V8.85666Z" fill="#E2D59D"/>
<path fill-rule="evenodd" clip-rule="evenodd" d="M10.5027 12.9364L10.79 12.8516L10.8716 12.9098C10.8716 12.9098 10.9297 13.0341 11.0211 13.0496C10.9919 13.1117 10.9161 13.1648 10.9201 13.2088C10.9241 13.2528 10.9628 13.2865 10.9628 13.2865C10.9628 13.2865 10.7045 13.7136 11.2133 14.1441C11.0929 14.1926 10.9395 14.2593 10.858 14.2977C10.9161 14.3113 11.0404 14.3361 11.0929 14.3832C11.1454 14.4303 11.1454 14.4453 11.1939 14.4745C11.2424 14.5037 11.2714 14.5424 11.2618 14.5598C11.2288 14.5404 11.1181 14.4823 11.0988 14.5366C11.0794 14.5908 10.6192 14.5696 10.6192 14.5696L9.84245 14.7191C9.84245 14.7191 9.87151 14.6414 9.78997 14.5696C9.69487 14.4842 9.57839 14.5734 9.4541 14.4783C9.29103 14.354 9.28514 14.2103 9.23279 14.156C9.28514 14.123 9.39202 14.0745 9.64636 14.0408C9.63663 14.0214 9.6036 13.9631 9.62306 13.9108C9.64636 13.8428 9.74338 13.8 9.71432 13.7188C9.75708 13.709 9.7764 13.709 9.88328 13.575C9.98428 13.441 10.0464 13.4119 10.1241 13.4022C10.2017 13.3925 10.2483 13.4022 10.3921 13.2682C10.4929 13.1731 10.4601 13.0916 10.4601 13.0916C10.4601 13.0916 10.526 13.0702 10.5028 12.9362L10.5027 12.9364Z" fill="#CBAC5A"/>
<path fill-rule="evenodd" clip-rule="evenodd" d="M9.65414 12.9794C9.65798 12.9599 9.67359 12.9502 9.77842 12.9599C9.88326 12.9697 10.5473 12.8979 10.7279 12.8881C10.9105 12.8746 11.5532 12.8842 11.8659 12.9502C12.1786 13.0163 12.495 13.094 12.6483 13.1327C12.8019 13.1755 12.8503 13.1909 12.8444 13.2103C12.8406 13.2298 12.806 13.2487 12.7862 13.2433C12.7669 13.2395 12.258 13.0841 12.1009 13.0513C11.9437 13.0186 11.3998 12.9309 11.1025 12.9361C10.8248 12.9401 10.7141 12.9323 10.4792 12.9594C10.2442 12.9886 9.85586 13.0274 9.73938 13.0119C9.62418 12.9983 9.64799 12.9983 9.65388 12.9789L9.65414 12.9794Z" fill="#D6BC6F"/>
<path fill-rule="evenodd" clip-rule="evenodd" d="M11.2172 14.5014C11.2172 14.5014 11.6153 14.717 11.759 14.981C11.8638 15.1771 11.6969 15.2743 11.6969 15.2743C11.6969 15.2743 11.9222 15.2743 11.893 15.3985C11.8795 15.4761 11.5047 15.6858 11.2542 15.7965C10.9998 15.9072 11.0096 15.9015 10.8853 15.9208C10.7648 15.9402 10.4347 15.8824 10.3668 15.979C10.2988 16.0757 10.3284 16.1752 10.3473 16.1907C10.3668 16.2043 10.5241 16.2238 10.5241 16.2238C10.5241 16.2238 10.491 16.315 10.1649 16.3247C9.83876 16.3345 9.75709 16.3576 9.73764 16.3927C9.71818 16.4256 9.79972 16.4063 9.94935 16.4311C10.0989 16.4544 10.3085 16.4695 10.3085 16.4695C10.3085 16.4695 10.2405 16.5278 10.0639 16.5743C9.86192 16.6267 9.54538 16.6753 9.45028 16.7336C9.49879 16.7666 9.57073 16.8151 9.60388 16.819C9.52234 16.8384 9.40765 16.8812 9.38833 16.8967C9.41738 16.9161 9.45629 16.9394 9.45629 16.9394C9.45629 16.9394 9.29309 17.1355 9.19799 17.1841C9.10289 17.2328 8.5553 17.487 8.36689 17.4385C7.897 17.3142 7.83876 16.7996 7.7242 16.7608C7.5514 16.7026 7.46987 16.819 7.31639 16.7374C7.38436 16.6889 7.42135 16.6599 7.49316 16.6268C7.41547 16.5884 7.01355 16.3336 7.01355 16.3336C6.97152 16.242 6.92487 16.1526 6.87377 16.0657C6.79608 15.9317 6.68177 15.753 6.59601 15.5957C6.40964 15.2501 6.39992 15.0908 6.23096 14.8947C6.26014 14.8563 6.361 14.8617 6.361 14.8617L7.77668 15.3278L10.2869 15.4005L10.9397 14.4685L11.2173 14.5015L11.2172 14.5014Z" fill="#DFC677"/>
<path fill-rule="evenodd" clip-rule="evenodd" d="M7.49878 15.9227C7.51393 15.9396 7.53159 15.954 7.55113 15.9654C7.59977 15.9985 7.67158 16.0374 7.72009 16.0955C7.73955 16.0664 7.78806 16.014 7.87369 16.0955C7.95932 16.177 8.06569 16.1189 8.13187 16.1382C8.19984 16.1617 8.20368 16.1713 8.20368 16.1713C8.20368 16.1713 8.24208 16.1382 8.32796 16.1033C8.38044 16.0838 8.44252 16.0703 8.51049 16.051C8.57257 16.0374 8.64054 16.0179 8.68726 16.0179C8.73001 16.047 8.88336 16.2099 9.49891 15.9694C10.0795 15.7441 10.2134 15.7189 10.3106 15.7537C10.3203 15.7304 10.33 15.6858 10.4795 15.6917C10.4795 15.6296 10.3552 15.4179 10.3552 15.4179L9.66979 15.183H9.29488L8.17065 15.3888L7.54768 15.7443L7.49916 15.9235L7.49878 15.9227Z" fill="#C4A859"/>
<path fill-rule="evenodd" clip-rule="evenodd" d="M7.12396 15.5287C7.12396 15.5287 7.13753 15.6335 7.29292 15.7442C7.44652 15.8548 7.49478 15.9209 7.49478 15.9209C7.49478 15.9209 7.52396 15.8825 7.54726 15.8433C7.57055 15.8005 7.59001 15.752 7.62879 15.7385C7.70649 15.7054 7.88313 15.7675 7.92204 15.7578C7.95507 15.7482 7.94534 15.6802 7.98028 15.6802C8.06182 15.6762 8.11417 15.7326 8.14335 15.7326C8.17254 15.7326 8.24422 15.7287 8.25395 15.7132C8.26367 15.6977 8.26751 15.5365 8.37823 15.4588C8.49868 15.3734 8.64627 15.4103 8.68543 15.4297C8.68543 15.4588 8.68927 15.5307 8.76697 15.5345C8.84467 15.5384 8.85235 15.5248 8.92057 15.5481C8.98879 15.5714 9.07007 15.5443 9.10694 15.6587C9.13996 15.6491 9.21766 15.6394 9.1982 15.5287C9.2366 15.4996 9.27014 15.4802 9.3518 15.3656C9.37126 15.3365 9.40415 15.3035 9.4295 15.2608C9.49747 15.2608 9.579 15.2472 9.68767 15.3423C9.65465 15.3656 9.63519 15.3807 9.62559 15.4044C9.65402 15.4325 9.67997 15.4631 9.70316 15.4956C9.73235 15.534 9.7518 15.5811 9.78867 15.5909C9.8702 15.6142 10.0042 15.5811 10.1537 15.5909C10.2975 15.6006 10.4178 15.6529 10.4703 15.686C10.4897 15.6764 10.4897 15.6724 10.5382 15.6821C10.5867 15.6919 10.6236 15.6957 10.5713 15.6336C10.6003 15.6472 10.6333 15.6764 10.6625 15.6472C10.6917 15.618 10.7149 15.5754 10.7964 15.5657C10.8779 15.5559 10.9071 15.5695 10.9402 15.4841C10.9829 15.3793 10.8353 15.3793 10.8353 15.3793C10.8353 15.3793 10.9033 15.3171 10.9791 15.2355C11.0703 15.1502 11.1752 15.0394 11.2004 14.9035C11.2431 14.653 10.9985 14.6201 10.9985 14.6201L9.81209 14.9852L8.36159 14.9132L7.12473 15.5288L7.12396 15.5287Z" fill="#927D49"/>
<path fill-rule="evenodd" clip-rule="evenodd" d="M6.05801 12.1015C6.05801 12.1015 6.01961 12.15 5.99593 12.2646C5.97225 12.3791 5.98236 12.3656 5.96291 12.4471C5.94345 12.5286 5.70447 13.3403 5.79407 13.6141C5.88367 13.8879 6.03881 13.9889 6.13583 14.2102C6.15529 14.2587 6.17423 14.2879 6.18435 14.3306C6.21737 14.4743 6.18831 14.585 6.2271 14.7287C6.24067 14.7772 6.27574 14.8336 6.32809 14.8918C6.44329 15.0121 6.63107 15.1267 6.71209 15.2082C6.82652 15.3287 6.98972 15.5734 7.19747 15.5966C7.30819 15.6101 7.4655 15.5635 7.59555 15.486C7.71075 15.414 7.78191 15.3132 7.90275 15.2556C7.98812 15.2128 8.07939 15.1973 8.16092 15.1779C8.32988 15.1449 8.48335 15.1395 8.57462 15.1584C8.71439 15.1876 9.04451 15.2886 9.22742 15.2886C9.37035 15.2863 9.51247 15.2667 9.65071 15.2304C9.92835 15.1488 10.2642 15.0089 10.4857 14.9468C10.6157 14.9084 10.7205 14.8983 10.8274 14.875C11.0099 14.8323 11.1633 14.774 11.2507 14.6633C11.1925 14.5953 11.1207 14.4905 10.7322 14.4944C10.2915 14.5041 9.78268 14.7487 9.53219 14.7876C9.28169 14.8265 9.17302 14.8594 8.89334 14.7584C8.61916 14.6564 8.61007 14.5889 8.61007 14.5889C8.61007 14.5889 8.3222 14.3876 8.20175 13.8743C8.08131 13.361 8.20175 12.987 8.51446 12.6316C8.59599 12.5403 8.57654 12.4588 8.57654 12.4588C8.57654 12.4588 8.78236 12.1811 8.72604 11.9211C8.66396 11.6628 8.26588 11.7153 8.26588 11.7153L6.05814 12.1015H6.05801Z" fill="#6E6342"/>
<path fill-rule="evenodd" clip-rule="evenodd" d="M6.39002 12.9656C6.3729 12.9978 6.36485 13.034 6.36672 13.0704C6.37056 13.1228 6.38618 13.1907 6.54336 13.3442C6.67738 13.4781 6.64819 13.6276 6.64819 13.6276C6.64819 13.6276 6.71565 13.6411 6.89869 13.5555C7.04243 13.4875 7.09069 13.608 7.09069 13.608C7.13253 13.586 7.17788 13.5716 7.2247 13.5652C7.26712 13.5613 7.30818 13.5482 7.34502 13.5268C7.34502 13.5268 7.51398 13.6996 7.66157 13.7812C7.79558 13.8531 7.87328 13.9016 7.93933 13.8531C8.00141 13.8103 8.00141 13.7229 7.99744 13.6841C7.98204 13.6483 7.96253 13.6145 7.93933 13.5832C7.89657 13.5211 7.82861 13.4491 7.82413 13.3912C7.8144 13.2573 7.92512 13.0979 7.90169 13.0591C7.87827 13.0204 7.7911 13.0106 7.57555 13.0883C7.35232 13.162 6.38912 12.966 6.38912 12.966L6.39002 12.9656Z" fill="#39331F"/>
<path fill-rule="evenodd" clip-rule="evenodd" d="M6.89871 13.8335C6.89871 13.8335 6.78813 13.7287 6.82691 13.2199C6.87386 13.2192 6.92073 13.2238 6.96667 13.2335C6.96667 13.2335 7.02694 13.6277 6.89871 13.8335Z" fill="#292311"/>
<path fill-rule="evenodd" clip-rule="evenodd" d="M6.11052 11.7131C6.12595 11.7017 6.14027 11.6888 6.15327 11.6747C6.11487 11.7465 5.93759 12.0339 6.08134 12.4864C6.22508 12.9368 6.58617 13.2727 7.03084 13.2883C7.47551 13.3039 7.70924 13.0863 7.9765 12.7601C8.08134 12.6301 8.20178 12.4669 8.30854 12.3563C8.46777 12.1834 8.59206 12.1349 8.59206 11.968C8.59206 11.6262 8.24249 11.4727 7.72793 11.3194C7.21337 11.166 6.74924 11.185 6.50847 11.2899C6.27359 11.4044 6.1726 11.5248 6.11039 11.7132L6.11052 11.7131Z" fill="#252211"/>
<path fill-rule="evenodd" clip-rule="evenodd" d="M7.76283 13.9869L7.80123 13.9675C7.80123 13.9675 7.81083 13.8139 7.87304 13.818C7.93511 13.8277 7.9643 13.9093 7.95841 13.9384C7.95457 13.9675 7.93908 14.0161 7.87688 14.0102C7.79534 14.0121 7.76245 13.9869 7.76245 13.9869H7.76283Z" fill="#3F3824"/>
<path fill-rule="evenodd" clip-rule="evenodd" d="M7.59003 13.3344C7.59003 13.3344 7.62843 13.3208 7.6754 13.3674C7.7138 13.3674 7.88123 13.3479 7.93371 13.381C7.98619 13.414 8.00167 13.4431 8.00167 13.4431C8.00167 13.4431 7.80558 13.4858 7.6987 13.4431C7.59003 13.4062 7.59003 13.3344 7.59003 13.3344Z" fill="#2D2815"/>
<path fill-rule="evenodd" clip-rule="evenodd" d="M8.45416 13.3635C8.45416 13.3537 8.34932 13.2819 8.2386 13.2585C8.21914 13.2547 8.21517 13.2682 8.2002 13.2682C8.19047 13.2644 8.18663 13.2352 8.18663 13.2352L8.12365 13.2684C8.12365 13.2684 8.11392 13.2819 8.14695 13.3068C8.176 13.3301 8.22465 13.3495 8.23821 13.3883C8.25178 13.4271 8.25178 13.4406 8.25767 13.4465C8.26151 13.4504 8.32948 13.4465 8.36251 13.4271C8.39553 13.4076 8.45774 13.3759 8.45377 13.3631L8.45416 13.3635Z" fill="#82764F"/>
<path fill-rule="evenodd" clip-rule="evenodd" d="M7.47357 13.7577C7.47357 13.7577 7.4929 13.6238 7.62308 13.618C7.75696 13.6082 7.78231 13.7382 7.78231 13.7382L7.70461 13.8159C7.70461 13.814 7.64637 13.7325 7.47421 13.7577H7.47357Z" fill="#2D2816"/>
<path fill-rule="evenodd" clip-rule="evenodd" d="M8.31825 13.181C8.31825 13.181 8.24631 13.2587 8.08721 13.282C8.07364 13.2625 8.04446 13.2237 8.08721 13.1617C8.12996 13.0996 8.17847 13.0801 8.22698 13.0995C8.24839 13.1029 8.26835 13.1124 8.28452 13.1269C8.30069 13.1413 8.3124 13.1601 8.31825 13.181Z" fill="#574F35"/>
<path fill-rule="evenodd" clip-rule="evenodd" d="M8.61133 13.2762C8.61529 13.2567 8.60173 13.2529 8.61133 13.2432C8.62093 13.2334 8.67353 13.2141 8.68326 13.2237C8.6871 13.2277 8.68326 13.2432 8.68326 13.2621C8.68326 13.2811 8.68326 13.3005 8.67353 13.3145C8.65997 13.3339 8.62118 13.3436 8.60173 13.3379C8.58227 13.3321 8.57843 13.3049 8.57843 13.2995C8.58803 13.2956 8.61133 13.2859 8.61133 13.2762ZM8.94285 13.0665C8.94285 13.0568 8.97587 13.0374 8.99533 13.0374C9.02438 13.0374 9.02438 13.0606 9.02835 13.0665C9.03795 13.0704 9.03795 13.0626 9.04768 13.0801C9.05741 13.0976 9.0711 13.1286 9.06125 13.1481C9.05139 13.1675 9.01273 13.181 9.00313 13.1771C8.98957 13.1674 8.94681 13.0801 8.94285 13.0665Z" fill="#82764F"/>
<path fill-rule="evenodd" clip-rule="evenodd" d="M8.27551 13.3209C8.27551 13.3209 8.31826 13.3305 8.3765 13.3792C8.35705 13.3927 8.32786 13.4082 8.32786 13.4082C8.32786 13.4082 8.32402 13.3636 8.27551 13.3208V13.3209Z" fill="#6E6342"/>
<path fill-rule="evenodd" clip-rule="evenodd" d="M8.18037 12.8936C8.17064 12.884 8.20942 12.8607 8.23272 12.8645C8.25602 12.8684 8.26575 12.884 8.29096 12.8878C8.31618 12.8917 8.32015 12.8781 8.32936 12.8684C8.33858 12.8587 8.37211 12.8645 8.37787 12.8684C8.38146 12.8727 8.38471 12.8772 8.3876 12.882C8.38801 12.8746 8.38994 12.8673 8.39326 12.8607C8.39659 12.8541 8.40124 12.8483 8.40693 12.8436C8.41438 12.8381 8.42297 12.8344 8.43206 12.8327C8.44115 12.831 8.4505 12.8314 8.45941 12.8338C8.46325 12.8474 8.48271 12.8959 8.47887 12.9056C8.47503 12.9154 8.41679 12.9291 8.40693 12.9192C8.41666 12.9426 8.45941 12.9911 8.46517 13.0007C8.47093 13.0103 8.42242 13.0338 8.40309 13.0299C8.37595 13.028 8.20891 12.9309 8.17986 12.894L8.18037 12.8936ZM8.43471 12.5713C8.43111 12.5615 8.42424 12.5533 8.41525 12.548C8.40168 12.5442 8.35701 12.548 8.35701 12.5713C8.35701 12.5946 8.39541 12.7249 8.43855 12.7927C8.48719 12.8607 8.52008 12.9169 8.55311 12.9325C8.56348 12.9372 8.57525 12.9379 8.58606 12.9342C8.59686 12.9306 8.6059 12.9231 8.61135 12.9131C8.61519 12.9033 8.62492 12.8315 8.62108 12.6626C8.61724 12.4936 8.61135 12.3305 8.60162 12.3208C8.59189 12.3111 8.55311 12.3112 8.53954 12.3305C8.52597 12.3499 8.43855 12.5422 8.43458 12.5713H8.43471Z" fill="#585136"/>
<path fill-rule="evenodd" clip-rule="evenodd" d="M8.26196 13.5655C8.26196 13.5655 8.19398 13.5228 8.12793 13.5519C8.06585 13.5811 8.06969 13.6957 8.06969 13.6957C8.08365 13.7012 8.09875 13.7031 8.11365 13.7014C8.12855 13.6997 8.14282 13.6944 8.1552 13.686C8.19795 13.6569 8.25223 13.6084 8.26196 13.5656V13.5655Z" fill="#574F35"/>
<path fill-rule="evenodd" clip-rule="evenodd" d="M8.39002 13.7189C8.38618 13.6805 8.35162 13.6805 8.35162 13.6607C8.354 13.6512 8.3595 13.6428 8.36723 13.6368C8.37496 13.6308 8.38447 13.6276 8.39425 13.6277C8.4137 13.6277 8.43265 13.651 8.45646 13.6661C8.47975 13.6796 8.5147 13.7045 8.51854 13.734C8.52238 13.7636 8.48014 13.8446 8.43316 13.8446C8.38618 13.8446 8.40014 13.7572 8.39041 13.7184L8.39002 13.7189ZM8.76481 13.6665C8.76481 13.6665 8.68711 13.6898 8.69287 13.6665C8.69863 13.6432 8.7163 13.6374 8.74151 13.6374C8.75432 13.624 8.77155 13.6157 8.79002 13.614C8.80059 13.6135 8.81096 13.6169 8.81908 13.6237C8.81908 13.6237 8.87156 13.6004 8.88705 13.614C8.90254 13.6275 8.89102 13.6275 8.90062 13.6432C8.91284 13.6605 8.92086 13.6804 8.92404 13.7014C8.92404 13.7169 8.8658 13.7499 8.81908 13.7442C8.76481 13.7325 8.77441 13.6762 8.76481 13.6665ZM9.21716 13.579C9.21716 13.579 9.24046 13.5926 9.22113 13.6082C9.20756 13.6218 9.13959 13.6466 9.08122 13.651C9.02298 13.651 8.97063 13.6606 8.97063 13.6412C8.97063 13.6219 9.01914 13.583 9.0482 13.5733C9.05403 13.566 9.06143 13.5601 9.06985 13.5561C9.07827 13.552 9.0875 13.5499 9.09684 13.55C9.12014 13.55 9.21127 13.5402 9.23662 13.5364C9.25991 13.5324 9.27937 13.546 9.26567 13.5655C9.25991 13.579 9.21716 13.579 9.21716 13.579ZM9.35118 12.9795C9.35118 12.9795 9.32199 13.0416 9.2891 13.0416C9.25607 13.0377 9.25607 13.028 9.25607 13.0183C9.25607 13.0047 9.2891 12.9697 9.28513 12.96C9.27553 12.96 9.2521 12.96 9.25607 12.9367C9.25607 12.9173 9.2891 12.894 9.31815 12.8983C9.34011 12.8803 9.36744 12.8701 9.39585 12.8693C9.42887 12.8693 9.45793 12.8789 9.45793 12.8983C9.45793 12.9178 9.41953 12.9604 9.40545 12.9703C9.38996 12.9857 9.3705 12.9959 9.35118 12.9799V12.9795ZM8.90842 14.127C8.90842 14.127 8.87002 14.131 8.87002 14.1503C8.87002 14.16 8.87962 14.16 8.89332 14.1543C8.90121 14.1538 8.90902 14.1525 8.91662 14.1503C8.92046 14.1543 8.92046 14.1736 8.94964 14.1736C8.9736 14.1704 8.9967 14.1625 9.01761 14.1503C9.0409 14.1407 9.06036 14.1309 9.06036 14.1119C9.05063 14.0789 9.03118 14.0633 9.00212 14.0633C8.98723 14.0623 8.97238 14.0657 8.95937 14.073C8.95937 14.073 8.94964 14.0535 8.91662 14.073C8.88359 14.0925 8.88743 14.0924 8.89716 14.1022C8.91457 14.1177 8.90881 14.1278 8.90881 14.1278L8.90842 14.127ZM8.68903 14.329C8.68903 14.3193 8.73754 14.2998 8.75111 14.3057C8.76468 14.3095 8.80346 14.3833 8.80346 14.3911C8.80346 14.4008 8.75495 14.4241 8.7355 14.4241C8.71604 14.4241 8.68314 14.3911 8.68314 14.3857C8.68314 14.3819 8.70644 14.3761 8.70644 14.3721C8.7122 14.3625 8.68903 14.3391 8.68903 14.3294V14.329ZM8.53543 14.0455C8.54516 14.0416 8.54516 14.0319 8.55873 14.0222C8.56298 14.0193 8.56781 14.0175 8.57287 14.0169C8.57793 14.0162 8.58308 14.0167 8.58791 14.0183C8.59134 14.0122 8.59607 14.007 8.60179 14.0029C8.6075 13.9989 8.61404 13.9961 8.62094 13.9949C8.64423 13.9911 8.66369 13.9949 8.65934 14.0046C8.65934 14.0338 8.67879 14.0532 8.67879 14.0764C8.67879 14.0997 8.66522 14.1289 8.61671 14.1484C8.5682 14.162 8.50215 14.162 8.49242 14.1581C8.4827 14.1543 8.47297 14.1154 8.4827 14.0959C8.49242 14.0764 8.51956 14.0552 8.53518 14.0455H8.53543Z" fill="#82764F"/>
<path fill-rule="evenodd" clip-rule="evenodd" d="M8.59724 14.0587C8.59724 14.0587 8.56421 14.0782 8.56421 14.0879C8.56128 14.0973 8.55998 14.1071 8.56037 14.1169C8.56037 14.1227 8.60313 14.1131 8.60889 14.1072C8.61081 14.1034 8.59724 14.0688 8.59724 14.0587Z" fill="#6E6342"/>
<path fill-rule="evenodd" clip-rule="evenodd" d="M8.30854 13.9674C8.32787 13.9714 8.36089 13.9674 8.38611 13.9772C8.40557 13.9869 8.41913 14.0063 8.39968 14.0296C8.38022 14.0529 8.36128 14.0879 8.31814 14.082C8.26963 14.0781 8.22304 14.0529 8.22304 14.0335C8.22223 14.0212 8.22387 14.0088 8.22787 13.9971C8.23187 13.9855 8.23814 13.9747 8.24634 13.9655C8.26579 13.95 8.27539 13.9597 8.30842 13.9674H8.30854Z" fill="#585136"/>
<path fill-rule="evenodd" clip-rule="evenodd" d="M8.28519 13.9868C8.28519 13.9868 8.22311 14.0353 8.2075 14.0588C8.18804 14.082 8.09294 14.2024 8.06389 14.2276C8.07354 14.2106 8.08454 14.1943 8.09678 14.1791C8.05838 14.2036 8.0296 14.2406 8.01525 14.2839C7.99196 14.3558 8.14542 14.3946 8.24628 14.4238C8.34714 14.453 8.38618 14.4622 8.38618 14.4622C8.34904 14.4064 8.31716 14.3473 8.29095 14.2856C8.25255 14.1943 8.23271 14.1846 8.25793 14.1418C8.27738 14.0991 8.30656 14.07 8.30656 14.037C8.29492 14.0063 8.28519 13.9868 8.28519 13.9868Z" fill="#574F35"/>
<path fill-rule="evenodd" clip-rule="evenodd" d="M6.07154 14.1404C6.08568 14.143 6.10016 14.143 6.1143 14.1404C6.14335 14.1364 6.44633 14.0252 6.76287 14.0451C6.99984 14.0594 7.23472 14.098 7.4638 14.1603C7.86188 14.2652 8.35699 14.4729 8.67737 14.5914C8.76275 14.6243 8.84633 14.6827 8.90777 14.7059C9.15251 14.8011 9.16211 14.8011 9.30585 14.8263C9.47481 14.8496 9.64761 14.7933 9.82822 14.7545C10.0495 14.7059 10.4282 14.6826 10.7602 14.6341C10.8676 14.6192 10.9735 14.5952 11.0767 14.5623C11.0767 14.5623 10.8127 14.8263 10.1796 14.9214C9.92368 14.9603 9.66364 14.9636 9.40684 14.9312C9.20486 14.9117 9.07097 14.8825 8.96998 14.8535C8.85542 14.8204 8.62041 14.733 8.33113 14.6615C8.12915 14.609 7.90386 14.5702 7.64569 14.5217C7.00876 14.4051 6.31756 14.2712 6.07129 14.1411L6.07154 14.1404Z" fill="#252211"/>
<path fill-rule="evenodd" clip-rule="evenodd" d="M5.35695 12.9404C5.20336 13.0705 5.04041 13.1948 4.88131 13.3151L4.40169 13.6836C4.23862 13.8039 4.07939 13.9282 3.91619 14.0487C3.75299 14.1691 3.59005 14.2835 3.41699 14.3943C3.57059 14.2642 3.73354 14.1438 3.89661 14.0254C4.05968 13.907 4.22877 13.7909 4.38608 13.6708L4.86569 13.3018C5.03068 13.1815 5.18992 13.0572 5.35695 12.9407V12.9404ZM4.50845 14.2997C4.50845 14.2997 4.68124 14.1559 4.8968 13.9541C5.1647 13.7037 5.49289 13.3832 5.59772 13.3251L4.50832 14.2998L4.50845 14.2997Z" fill="#CFB66C"/>
<path fill-rule="evenodd" clip-rule="evenodd" d="M4.50842 14.2995C4.59393 14.2141 4.68519 14.1306 4.77646 14.049L4.91623 13.9287C4.95898 13.8903 5.00762 13.8471 5.05025 13.8044C5.13562 13.719 5.21921 13.6276 5.30458 13.5403C5.3469 13.4964 5.39164 13.4549 5.4386 13.416C5.46208 13.3953 5.48815 13.3776 5.51617 13.3636C5.53959 13.35 5.56481 13.3252 5.5977 13.3208C5.57838 13.35 5.55508 13.3636 5.53562 13.3888C5.51233 13.4082 5.49287 13.4315 5.47354 13.4508C5.43079 13.4936 5.38228 13.5324 5.33953 13.5713C5.24826 13.649 5.15316 13.7249 5.0619 13.8062C4.97063 13.8874 4.88525 13.9751 4.79386 14.0567C4.69492 14.1402 4.60365 14.2218 4.50842 14.2998V14.2995ZM5.66964 13.5228C5.66964 13.5228 5.03668 14.1423 4.9065 14.2431L5.66964 13.5228Z" fill="#CFB66C"/>
<path fill-rule="evenodd" clip-rule="evenodd" d="M5.66969 13.5227C5.61275 13.5886 5.5517 13.6509 5.48691 13.7091L5.29491 13.8916C5.23283 13.9537 5.17446 14.0159 5.10854 14.078C5.04057 14.1362 4.97849 14.1932 4.90656 14.2469L5.09292 14.0644C5.15513 14.0023 5.2231 13.95 5.28915 13.8878L5.47552 13.7052C5.53952 13.6412 5.60172 13.579 5.66969 13.5227ZM5.69875 13.8586C5.6404 14.0214 5.57165 14.1803 5.49292 14.3344C5.32985 14.6606 5.08524 15.0683 4.97836 15.2762L5.69875 13.8586Z" fill="#CFB66C"/>
<path fill-rule="evenodd" clip-rule="evenodd" d="M5.69869 13.8588C5.69869 13.9306 5.67923 13.9928 5.65594 14.0549C5.63323 14.117 5.60734 14.1779 5.57837 14.2374C5.54918 14.2956 5.51616 14.3579 5.48314 14.4142C5.45011 14.4705 5.41133 14.5286 5.38214 14.587L5.18605 14.9326C5.11808 15.0478 5.05203 15.1636 4.98022 15.2744C5.02874 15.1501 5.09478 15.0336 5.15699 14.919C5.22496 14.8038 5.28704 14.6886 5.34899 14.5694C5.37924 14.5101 5.40645 14.4492 5.43053 14.387C5.45958 14.3248 5.48864 14.2666 5.51206 14.2103C5.54112 14.1482 5.56442 14.0898 5.5936 14.0336C5.6265 13.9733 5.65376 13.9151 5.69843 13.8588H5.69869Z" fill="#CFB66C"/>
<path fill-rule="evenodd" clip-rule="evenodd" d="M6.39003 15.4509C6.39003 15.4509 6.19803 15.7053 6.21723 16.0276C6.26958 15.8587 6.33563 15.6004 6.39003 15.4509ZM6.57256 15.7059C6.57256 15.7059 6.50459 16.3971 6.44827 16.7369C6.52789 16.3441 6.54338 16.3771 6.57256 15.7059ZM7.84437 16.7778C7.84437 16.7778 7.55701 17.6226 7.55112 17.8573C7.61333 17.6159 7.73365 17.1227 7.84437 16.7771V16.7778Z" fill="#DEC270"/>
<path fill-rule="evenodd" clip-rule="evenodd" d="M8.51624 15.3987C8.51624 15.3987 8.98228 16.1676 9.33185 16.8238C9.23726 16.4936 9.01966 15.8879 8.51624 15.3987Z" fill="#CBAF59"/>
<path fill-rule="evenodd" clip-rule="evenodd" d="M9.76874 16.5305C10.0246 16.9828 10.2554 17.4489 10.4599 17.9266C10.4212 17.5965 10.3162 17.0315 9.76874 16.5305Z" fill="#E3C677"/>
<path fill-rule="evenodd" clip-rule="evenodd" d="M13.4502 17.6644C13.5278 17.6159 13.6813 17.3517 13.8153 17.2858C13.9492 17.2178 14.0502 17.2042 14.1706 17.0702C14.291 16.9303 14.3242 16.8449 14.588 16.7343C14.9571 16.575 14.7032 16.3692 14.7032 16.3692C14.7439 16.3292 14.7873 16.2923 14.8333 16.2586C14.9285 16.1868 15.0391 16.0993 15.0295 15.9459C15.0159 15.6877 14.9674 15.3129 14.7557 15.0954C14.9615 15.0527 15.3557 15.0236 15.6005 14.9615C15.8839 14.8896 16.0141 14.7886 16.0141 14.7886C16.0141 14.7886 15.851 14.511 16.1151 14.2314C16.3791 13.9519 16.5947 13.7848 16.7539 13.4721C16.5714 13.4488 16.2931 13.3518 15.583 13.6216C15.6213 13.6397 15.6583 13.6604 15.6937 13.6837C15.6937 13.6837 15.2568 13.8042 15.0976 13.9382C14.8198 14.1731 14.7849 14.3653 14.484 14.5091C14.183 14.6528 13.8801 14.6139 13.6297 14.7304C13.3793 14.8468 13.3423 14.9459 13.2509 14.9887C13.2704 15.012 13.2471 15.0508 13.284 15.0838C13.2607 15.1168 13.1247 15.3381 12.9869 15.3381C13.0005 15.3906 13.1169 15.4294 13.1169 15.4294C13.1169 15.4294 13.0316 15.4916 12.8141 15.5071C12.9247 15.6223 13.0296 15.7478 13.3189 15.9304C13.2956 15.9789 13.1985 16.0508 13.2374 16.1421C13.2801 16.2333 13.391 16.3576 13.8335 16.4586C13.6082 16.4682 13.3443 16.5207 12.9887 16.4722C12.6333 16.4294 12.5751 16.4042 12.3557 16.4586C12.379 16.4819 12.4411 16.4819 12.4955 16.544C12.4372 16.5478 12.0722 16.5012 11.9479 16.6644C11.8179 16.8333 11.7615 17.111 11.7713 17.2974C11.7033 17.3304 11.6372 17.3887 11.6703 17.5091C11.7033 17.6296 11.8761 17.6684 11.9868 17.744C12.0974 17.8255 12.1071 17.8546 12.2121 17.8353C12.3227 17.812 12.4858 17.7014 12.581 17.7014C12.6762 17.7014 12.7441 17.7732 12.7441 17.7732C12.7441 17.7732 13.0024 17.6489 13.0276 17.6722C13.0509 17.6955 13.0314 17.845 13.0566 17.8683C13.0822 17.8858 13.3732 17.713 13.4509 17.6644H13.4502Z" fill="#ECD592"/>
<path fill-rule="evenodd" clip-rule="evenodd" d="M19.095 9.89364C17.8814 6.75969 14.8813 6.17908 14.8813 6.17908H6.32209L6.35511 9.37127H8.05969V16.4995H6.32196V19.6859H14.6444C16.6502 19.6859 18.258 17.6703 18.258 17.6703C20.8327 14.016 19.0948 9.89364 19.0948 9.89364H19.095ZM14.6891 15.5227C14.6891 15.5227 14.0363 16.4645 13.326 16.4645H11.9052L11.8715 9.37908H13.6949C13.6949 9.37908 14.5397 9.55572 15.1299 11.2275C15.1299 11.2275 15.9124 13.6211 14.6891 15.5227Z" fill="white" fill-opacity="0.8"/>
</g>
<defs>
<clipPath id="clip0">
<rect width="24" height="24" fill="white" transform="translate(0.494873 0.845093)"/>
</clipPath>
</defs>
</svg>
