<svg width="73" height="73" viewBox="0 0 73 73" fill="none" xmlns="http://www.w3.org/2000/svg">
<path d="M36.5347 72.2222C16.7347 72.2222 0.674652 56.1622 0.674652 36.3522C0.674652 16.5522 16.7347 0.492188 36.5347 0.492188C56.3447 0.492188 72.3947 16.5522 72.3947 36.3522C72.4047 56.1622 56.3447 72.2222 36.5347 72.2222Z" fill="#3E5C9A"/>
<path d="M31.0746 58.0321H39.8047V36.1721H45.8947L46.5446 28.8521H39.8047C39.8047 28.8521 39.8047 26.1221 39.8047 24.6821C39.8047 22.9521 40.1547 22.2721 41.8247 22.2721C43.1647 22.2721 46.5446 22.2721 46.5446 22.2721V14.6721C46.5446 14.6721 41.5646 14.6721 40.4946 14.6721C33.9946 14.6721 31.0646 17.5321 31.0646 23.0121C31.0646 27.7821 31.0646 28.8521 31.0646 28.8521H26.5247V36.2621H31.0646V58.0321H31.0746Z" fill="white"/>
</svg>
