<svg width="72" height="73" viewBox="0 0 72 73" fill="none" xmlns="http://www.w3.org/2000/svg">
<path d="M35.995 72.2322C16.195 72.2322 0.134979 56.1722 0.134979 36.3622C0.134979 16.5622 16.195 0.502197 35.995 0.502197C55.805 0.502197 71.855 16.5622 71.855 36.3622C71.865 56.1722 55.805 72.2322 35.995 72.2322Z" fill="url(#paint0_radial)"/>
<path d="M35.995 20.2421C41.245 20.2421 41.865 20.2621 43.945 20.3521C45.865 20.4421 46.905 20.7621 47.595 21.0321C48.515 21.3921 49.165 21.8121 49.855 22.5021C50.545 23.1921 50.965 23.8421 51.325 24.7621C51.595 25.4521 51.915 26.4921 52.005 28.4121C52.095 30.4821 52.115 31.1121 52.115 36.3621C52.115 41.6121 52.095 42.2321 52.005 44.3121C51.915 46.2321 51.595 47.2721 51.325 47.9621C50.965 48.8821 50.545 49.5322 49.855 50.2221C49.165 50.9121 48.515 51.3321 47.595 51.6921C46.905 51.9621 45.865 52.2821 43.945 52.3721C41.875 52.4621 41.255 52.4821 35.995 52.4821C30.745 52.4821 30.125 52.4621 28.045 52.3721C26.125 52.2821 25.085 51.9621 24.395 51.6921C23.475 51.3321 22.825 50.9121 22.135 50.2221C21.445 49.5322 21.025 48.8821 20.665 47.9621C20.395 47.2721 20.075 46.2321 19.985 44.3121C19.895 42.2421 19.875 41.6121 19.875 36.3621C19.875 31.1121 19.895 30.4921 19.985 28.4121C20.075 26.4921 20.395 25.4521 20.665 24.7621C21.025 23.8421 21.445 23.1921 22.135 22.5021C22.825 21.8121 23.475 21.3921 24.395 21.0321C25.085 20.7621 26.125 20.4421 28.045 20.3521C30.125 20.2621 30.745 20.2421 35.995 20.2421ZM35.995 16.7021C30.655 16.7021 29.985 16.7221 27.885 16.8221C25.795 16.9221 24.365 17.2521 23.115 17.7321C21.825 18.2321 20.725 18.9021 19.635 20.0021C18.545 21.0921 17.865 22.1921 17.365 23.4821C16.875 24.7321 16.545 26.1621 16.455 28.2521C16.355 30.3521 16.335 31.0221 16.335 36.3621C16.335 41.7021 16.355 42.3721 16.455 44.4721C16.555 46.5621 16.885 47.9921 17.365 49.2421C17.865 50.5322 18.535 51.6321 19.635 52.7221C20.725 53.8121 21.825 54.4921 23.115 54.9921C24.365 55.4822 25.795 55.8121 27.885 55.9021C29.985 56.0021 30.655 56.0221 35.995 56.0221C41.335 56.0221 42.005 56.0021 44.105 55.9021C46.195 55.8022 47.625 55.4721 48.875 54.9921C50.165 54.4921 51.265 53.8221 52.355 52.7221C53.445 51.6321 54.125 50.5322 54.625 49.2421C55.115 47.9921 55.445 46.5621 55.535 44.4721C55.635 42.3721 55.655 41.7021 55.655 36.3621C55.655 31.0221 55.635 30.3521 55.535 28.2521C55.435 26.1621 55.105 24.7321 54.625 23.4821C54.125 22.1921 53.455 21.0921 52.355 20.0021C51.265 18.9121 50.165 18.2321 48.875 17.7321C47.625 17.2421 46.195 16.9121 44.105 16.8221C42.005 16.7221 41.335 16.7021 35.995 16.7021Z" fill="white"/>
<path d="M35.995 26.2722C30.415 26.2722 25.895 30.7922 25.895 36.3722C25.895 41.9522 30.415 46.4722 35.995 46.4722C41.575 46.4722 46.095 41.9522 46.095 36.3722C46.095 30.7922 41.575 26.2722 35.995 26.2722ZM35.995 42.9222C32.375 42.9222 29.445 39.9922 29.445 36.3722C29.445 32.7522 32.375 29.8222 35.995 29.8222C39.615 29.8222 42.545 32.7522 42.545 36.3722C42.555 39.9822 39.615 42.9222 35.995 42.9222Z" fill="white"/>
<path d="M48.855 25.8722C48.855 27.1722 47.795 28.2322 46.495 28.2322C45.195 28.2322 44.135 27.1722 44.135 25.8722C44.135 24.5722 45.195 23.5122 46.495 23.5122C47.795 23.5122 48.855 24.5622 48.855 25.8722Z" fill="white"/>
<defs>
<radialGradient id="paint0_radial" cx="0" cy="0" r="1" gradientUnits="userSpaceOnUse" gradientTransform="translate(-1.65972 72.467) scale(132.616)">
<stop stop-color="#F5EC53"/>
<stop offset="0.2412" stop-color="#E48244"/>
<stop offset="0.3974" stop-color="#D15767"/>
<stop offset="0.4888" stop-color="#C84278"/>
<stop offset="1" stop-color="#192CFA"/>
</radialGradient>
</defs>
</svg>
