<svg width="24" height="25" viewBox="0 0 24 25" fill="none" xmlns="http://www.w3.org/2000/svg">
<path d="M23.0345 7.64621C21.9095 6.60746 20.3533 5.02121 19.0858 3.89621L19.0108 3.84371C18.886 3.7435 18.7453 3.66492 18.5945 3.61121C15.5383 3.04121 1.31455 0.382462 1.03705 0.416212C0.959289 0.427102 0.884965 0.455294 0.819546 0.498712L0.748296 0.554962C0.660562 0.644062 0.593928 0.751704 0.553296 0.869962L0.534546 0.918712V1.18496V1.22621C2.1358 5.68496 8.4583 20.2912 9.7033 23.7187C9.7783 23.9512 9.9208 24.3937 10.187 24.4162H10.247C10.3895 24.4162 10.997 23.6137 10.997 23.6137C10.997 23.6137 21.857 10.4437 22.9558 9.04121C23.098 8.86845 23.2236 8.68262 23.3308 8.48621C23.3582 8.33253 23.3453 8.17439 23.2933 8.02718C23.2414 7.87997 23.1523 7.74872 23.0345 7.64621ZM13.7833 9.17996L18.4183 5.33621L21.137 7.84121L13.7833 9.17996ZM11.9833 8.92871L4.0033 2.38871L16.9145 4.76996L11.9833 8.92871ZM12.7033 10.6425L20.8708 9.32621L11.5333 20.5762L12.7033 10.6425ZM2.91955 3.04121L11.3158 10.1662L10.1008 20.5837L2.91955 3.04121Z" fill="#FF060A"/>
</svg>
