<svg width="73" height="73" viewBox="0 0 73 73" fill="none" xmlns="http://www.w3.org/2000/svg">
<path d="M36.4554 72.2322C16.6554 72.2322 0.595367 56.1722 0.595367 36.3622C0.595367 16.5622 16.6554 0.502197 36.4554 0.502197C56.2654 0.502197 72.3154 16.5622 72.3154 36.3622C72.3254 56.1722 56.2654 72.2322 36.4554 72.2322Z" fill="#29A9E1"/>
<path d="M17.3554 48.3723C20.8254 50.5923 24.9454 51.8923 29.3754 51.8923C43.9354 51.8923 52.1554 39.5923 51.6654 28.5723C53.1954 27.4723 54.5254 26.0823 55.5754 24.5123C54.1654 25.1323 52.6554 25.5623 51.0754 25.7423C52.6954 24.7723 53.9354 23.2423 54.5254 21.4023C53.0154 22.3023 51.3354 22.9523 49.5454 23.3023C48.1154 21.7823 46.0754 20.8223 43.8254 20.8223C38.7654 20.8223 35.0454 25.5423 36.1854 30.4523C29.6654 30.1223 23.8954 27.0023 20.0254 22.2623C17.9754 25.7923 18.9554 30.4023 22.4554 32.7323C21.1654 32.6923 19.9554 32.3423 18.9054 31.7523C18.8254 35.3823 21.4254 38.7823 25.1954 39.5423C24.0954 39.8423 22.8854 39.9123 21.6554 39.6723C22.6554 42.7923 25.5454 45.0523 28.9754 45.1223C25.6654 47.7123 21.5054 48.8623 17.3554 48.3723Z" fill="white"/>
</svg>
